<svg fill="none" xmlns="http://www.w3.org/2000/svg" viewBox="0 0 20 20"><path d="M10 13.498a3.5 3.5 0 110-7 3.5 3.5 0 010 7zm7.428-2.524a7.6 7.6 0 00.07-.976 7.516 7.516 0 00-.07-.976l2.113-1.654a.5.5 0 00.118-.638l-2-3.464a.5.5 0 00-.612-.217l-2.489 1.003a7.476 7.476 0 00-1.69-.983l-.375-2.65A.501.501 0 0012 0L8-.001a.5.5 0 00-.494.421L7.13 3.07a7.5 7.5 0 00-1.69.983L2.95 3.05a.5.5 0 00-.612.217l-2 3.464a.5.5 0 00.118.638l2.112 1.654c-.042.32-.07.645-.07.976 0 .331.028.656.07.976L.456 12.628a.5.5 0 00-.118.64l2 3.463a.5.5 0 00.612.217l2.49-1.003c.518.4 1.086.73 1.69.983l.374 2.65a.5.5 0 00.494.421h4a.501.501 0 00.494-.421l.375-2.65a7.497 7.497 0 001.69-.984l2.49 1.004a.5.5 0 00.611-.217l2-3.464a.5.5 0 00-.118-.639l-2.113-1.653.001-.001z" fill="#616161"/></svg>