<svg xmlns="http://www.w3.org/2000/svg" width="22" height="22" viewBox="0 0 22 22">
<g id="Group">
<path id="Vector" fill-rule="evenodd" clip-rule="evenodd" d="M10.9994 8.18579C12.5528 8.18579 13.8135 9.44643 13.8135 10.9998C13.8135 12.5533 12.5528 13.8139 10.9994 13.8139C9.446 13.8139 8.18536 12.5533 8.18536 10.9998C8.18536 9.44643 9.446 8.18579 10.9994 8.18579ZM10.9994 9.7207C10.2933 9.7207 9.72027 10.2937 9.72027 10.9998C9.72027 11.706 10.2933 12.279 10.9994 12.279C11.7056 12.279 12.2786 11.706 12.2786 10.9998C12.2786 10.2937 11.7056 9.7207 10.9994 9.7207Z"/>
<path id="Vector_2" fill-rule="evenodd" clip-rule="evenodd" d="M16.297 10.1036C16.2274 9.68615 16.5087 9.29008 16.9274 9.21952C17.3449 9.14997 17.7409 9.43125 17.8115 9.84993C17.8739 10.2234 17.9068 10.6081 17.9068 11.0001C17.9068 14.8118 14.8114 17.9072 10.9997 17.9072C7.18793 17.9072 4.09259 14.8118 4.09259 11.0001C4.09259 7.18836 7.18793 4.09302 10.9997 4.09302C12.9009 4.09302 14.6242 4.86253 15.8737 6.10774C16.1734 6.4065 16.1745 6.89264 15.8757 7.19243C15.577 7.49325 15.0908 7.49325 14.79 7.19449C13.8188 6.22645 12.4784 5.62788 10.9998 5.62788C8.03431 5.62788 5.62762 8.03457 5.62762 11.0001C5.62762 13.9655 8.03431 16.3722 10.9998 16.3722C13.9653 16.3722 16.372 13.9655 16.372 11.0001C16.372 10.6951 16.3464 10.3953 16.2973 10.1036L16.297 10.1036Z"/>
<path id="Vector_3" fill-rule="evenodd" clip-rule="evenodd" d="M19.6771 7.21482C19.5071 6.82595 19.6843 6.37369 20.0721 6.20375C20.4599 6.03382 20.9132 6.21095 21.0832 6.59878C21.6726 7.94749 22 9.43529 22 11C22 17.0712 17.0707 22 11 22C4.92874 22 -6.10352e-05 17.0708 -6.10352e-05 11C-6.10352e-05 4.92881 4.92918 0 11 0C13.9972 0 16.7151 1.20139 18.6999 3.14757C19.0028 3.44427 19.0069 3.93046 18.7102 4.23227C18.4145 4.53513 17.9273 4.54027 17.6255 4.24357C15.9178 2.56855 13.5784 1.53503 11 1.53503C5.77603 1.53503 1.53486 5.77642 1.53486 11.0001C1.53486 16.2241 5.77625 20.4653 11 20.4653C16.2239 20.4653 20.4651 16.2239 20.4651 11.0001C20.4651 9.65451 20.1836 8.37436 19.6772 7.21511L19.6771 7.21482Z" />
<path id="Vector_4" fill-rule="evenodd" clip-rule="evenodd" d="M13.0767 10.0075C12.778 10.3072 12.2908 10.3072 11.9921 10.0075C11.6923 9.70869 11.6923 9.22149 11.9921 8.92275L17.6199 3.29491C17.9187 2.99512 18.4059 2.99512 18.7046 3.29491C19.0044 3.59367 19.0044 4.08087 18.7046 4.3796L13.0767 10.0075Z"/>
</g>
</svg>
