<svg width="18" height="24" viewBox="0 0 18 24" fill="none" xmlns="http://www.w3.org/2000/svg">
<g id="19">
<path id="Vector" d="M3.45647 1.31361V3.45647H1.31361H1.31357C1.19063 3.4565 1.07274 3.50535 0.985812 3.59228C0.898882 3.67921 0.850032 3.7971 0.85 3.92004V3.92008V22.6864V22.6864C0.850032 22.8094 0.898883 22.9273 0.985811 23.0142C1.07274 23.1011 1.19063 23.15 1.31357 23.15H1.31361H14.7739H14.7739C14.8969 23.15 15.0148 23.1011 15.1017 23.0142C15.1886 22.9273 15.2375 22.8094 15.2375 22.6864V22.6864V20.5435H17.3803H17.3804C17.5033 20.5435 17.6212 20.4946 17.7081 20.4077C17.7951 20.3208 17.8439 20.2029 17.844 20.08V20.0799V19.5321L17.844 18.9232L17.844 18.0893V18.0892V18.0631V1.31361V1.31357C17.8439 1.19063 17.7951 1.07274 17.7082 0.985811C17.6212 0.898883 17.5033 0.850032 17.3804 0.85H17.3804H3.92008H3.92004C3.79711 0.850031 3.67921 0.898882 3.59229 0.985811C3.50536 1.07274 3.4565 1.19063 3.45647 1.31357V1.31361ZM16.9167 19.6163H16.6196C16.6769 19.6038 16.7304 19.5935 16.7792 19.5864C16.8429 19.577 16.8877 19.575 16.9167 19.5768L16.9167 19.5943L16.9167 19.6163ZM2.98517 7.67883H3.0473H14.3103V22.2228H1.77722V7.67883H1.92123H1.92172H1.92223H1.92276H1.9233H1.92386H1.92443H1.92502H1.92563H1.92625H1.92688H1.92753H1.9282H1.92888H1.92958H1.93029H1.93101H1.93176H1.93251H1.93328H1.93407H1.93487H1.93568H1.93651H1.93736H1.93822H1.93909H1.93998H1.94088H1.9418H1.94273H1.94367H1.94463H1.9456H1.94659H1.94759H1.9486H1.94963H1.95067H1.95173H1.9528H1.95388H1.95498H1.95609H1.95721H1.95835H1.9595H1.96066H1.96184H1.96303H1.96423H1.96545H1.96668H1.96792H1.96917H1.97044H1.97172H1.97301H1.97432H1.97564H1.97697H1.97831H1.97966H1.98103H1.98241H1.9838H1.98521H1.98663H1.98805H1.98949H1.99095H1.99241H1.99389H1.99538H1.99688H1.99839H1.99991H2.00145H2.00299H2.00455H2.00612H2.0077H2.00929H2.01089H2.01251H2.01413H2.01577H2.01742H2.01907H2.02074H2.02242H2.02411H2.02581H2.02753H2.02925H2.03098H2.03273H2.03448H2.03624H2.03802H2.0398H2.0416H2.0434H2.04522H2.04704H2.04888H2.05073H2.05258H2.05445H2.05632H2.0582H2.0601H2.062H2.06392H2.06584H2.06777H2.06971H2.07166H2.07362H2.07559H2.07757H2.07956H2.08155H2.08356H2.08557H2.0876H2.08963H2.09167H2.09372H2.09578H2.09784H2.09992H2.102H2.10409H2.10619H2.1083H2.11042H2.11254H2.11468H2.11682H2.11897H2.12112H2.12329H2.12546H2.12764H2.12983H2.13203H2.13423H2.13644H2.13866H2.14089H2.14312H2.14536H2.14761H2.14986H2.15213H2.15439H2.15667H2.15895H2.16124H2.16354H2.16585H2.16816H2.17047H2.1728H2.17513H2.17747H2.17981H2.18216H2.18452H2.18688H2.18925H2.19162H2.19401H2.19639H2.19879H2.20119H2.20359H2.206H2.20842H2.21084H2.21327H2.21571H2.21815H2.22059H2.22304H2.2255H2.22796H2.23043H2.2329H2.23538H2.23786H2.24034H2.24284H2.24533H2.24784H2.25034H2.25286H2.25537H2.25789H2.26042H2.26295H2.26548H2.26802H2.27057H2.27312H2.27567H2.27822H2.28079H2.28335H2.28592H2.28849H2.29107H2.29365H2.29623H2.29882H2.30141H2.30401H2.30661H2.30921H2.31182H2.31443H2.31704H2.31966H2.32228H2.3249H2.32753H2.33015H2.33279H2.33542H2.33806H2.3407H2.34334H2.34599H2.34864H2.35129H2.35395H2.3566H2.35926H2.36192H2.36459H2.36725H2.36992H2.37259H2.37527H2.37794H2.38062H2.3833H2.38598H2.38866H2.39135H2.39403H2.39672H2.39941H2.4021H2.40479H2.40749H2.41018H2.41288H2.41558H2.41828H2.42098H2.42368H2.42638H2.42909H2.43179H2.4345H2.4372H2.43991H2.44262H2.44533H2.44803H2.45074H2.45345H2.45616H2.45888H2.46159H2.4643H2.46701H2.46972H2.47243H2.47515H2.47786H2.48057H2.48328H2.48599H2.4887H2.49142H2.49413H2.49684H2.49955H2.50226H2.50496H2.50767H2.51038H2.51309H2.51579H2.5185H2.5212H2.5239H2.52661H2.52931H2.53201H2.53471H2.5374H2.5401H2.54279H2.54549H2.54818H2.55087H2.55356H2.55624H2.55893H2.56161H2.56429H2.56697H2.56965H2.57233H2.575H2.57767H2.58034H2.58301H2.58568H2.58834H2.591H2.59366H2.59631H2.59896H2.60161H2.60426H2.60691H2.60955H2.61219H2.61482H2.61746H2.62009H2.62272H2.62534H2.62796H2.63058H2.63319H2.6358H2.63841H2.64102H2.64362H2.64621H2.64881H2.6514H2.65398H2.65657H2.65914H2.66172H2.66429H2.66685H2.66942H2.67198H2.67453H2.67708H2.67963H2.68217H2.6847H2.68724H2.68976H2.69229H2.6948H2.69732H2.69983H2.70233H2.70483H2.70733H2.70981H2.7123H2.71478H2.71725H2.71972H2.72218H2.72464H2.7271H2.72954H2.73199H2.73442H2.73685H2.73928H2.7417H2.74411H2.74652H2.74892H2.75132H2.75371H2.75609H2.75847H2.76084H2.76321H2.76556H2.76792H2.77026H2.7726H2.77494H2.77726H2.77958H2.7819H2.7842H2.78651H2.7888H2.79108H2.79336H2.79564H2.7979H2.80016H2.80241H2.80465H2.80689H2.80912H2.81134H2.81356H2.81576H2.81796H2.82015H2.82234H2.82451H2.82668H2.82884H2.83099H2.83314H2.83527H2.8374H2.83952H2.84163H2.84374H2.84583H2.84792H2.85H2.85207H2.85413H2.85618H2.85823H2.86026H2.86229H2.86431H2.86632H2.86832H2.87031H2.87229H2.87426H2.87623H2.87818H2.88012H2.88206H2.88399H2.8859H2.88781H2.88971H2.8916H2.89348H2.89535H2.89721H2.89905H2.90089H2.90272H2.90454H2.90635H2.90815H2.90994H2.91172H2.91349H2.91525H2.91699H2.91873H2.92046H2.92218H2.92388H2.92558H2.92726H2.92893H2.9306H2.93225H2.93389H2.93552H2.93714H2.93874H2.94034H2.94193H2.9435H2.94506H2.94661H2.94815H2.94968H2.9512H2.9527H2.95419H2.95567H2.95714H2.9586H2.96005H2.96148H2.9629H2.96431H2.96571H2.96709H2.96847H2.96983H2.97117H2.97251H2.97383H2.97514H2.97644H2.97773H2.979H2.98026H2.98151H2.98274H2.98396H2.98517ZM2.14299 6.75161L2.14298 6.90161V6.75161H2.14232H2.14165H2.14099H2.14034H2.13968H2.13903H2.13837H2.13772H2.13708H2.13643H2.13578H2.13514H2.1345H2.13386H2.13323H2.13259H2.13196H2.13133H2.1307H2.13007H2.12945H2.12882H2.1282H2.12758H2.12697H2.12635H2.12574H2.12512H2.12451H2.1239H2.1233H2.12269H2.12209H2.12149H2.12089H2.12029H2.1197H2.1191H2.11851H2.11792H2.11733H2.11674H2.11616H2.11558H2.11499H2.11441H2.11384H2.11326H2.11269H2.11211H2.11154H2.11097H2.1104H2.10984H2.10927H2.10871H2.10815H2.10759H2.10703H2.10647H2.10592H2.10537H2.10481H2.10426H2.10372H2.10317H2.10262H2.10208H2.10154H2.101H2.10046H2.09992H2.09939H2.09885H2.09832H2.09779H2.09726H2.09673H2.09621H2.09568H2.09516H2.09464H2.09412H2.0936H2.09308H2.09256H2.09205H2.09153H2.09102H2.09051H2.09H2.0895H2.08899H2.08849H2.08798H2.08748H2.08698H2.08648H2.08598H2.08549H2.08499H2.0845H2.08401H2.08352H2.08303H2.08254H2.08205H2.08157H2.08108H2.0806H2.08012H2.07964H2.07916H2.07868H2.07821H2.07773H2.07726H2.07678H2.07631H2.07584H2.07537H2.07491H2.07444H2.07398H2.07351H2.07305H2.07259H2.07213H2.07167H2.07121H2.07075H2.0703H2.06984H2.06939H2.06894H2.06849H2.06804H2.06759H2.06714H2.06669H2.06625H2.0658H2.06536H2.06492H2.06448H2.06404H2.0636H2.06316H2.06273H2.06229H2.06185H2.06142H2.06099H2.06056H2.06013H2.0597H2.05927H2.05884H2.05841H2.05799H2.05756H2.05714H2.05672H2.0563H2.05588H2.05546H2.05504H2.05462H2.0542H2.05379H2.05337H2.05296H2.05254H2.05213H2.05172H2.05131H2.0509H2.05049H2.05008H2.04967H2.04927H2.04886H2.04846H2.04805H2.04765H2.04725H2.04685H2.04645H2.04605H2.04565H2.04525H2.04485H2.04445H2.04406H2.04366H2.04327H2.04287H2.04248H2.04209H2.0417H2.04131H2.04092H2.04053H2.04014H2.03975H2.03936H2.03898H2.03859H2.0382H2.03782H2.03743H2.03705H2.03667H2.03629H2.0359H2.03552H2.03514H2.03476H2.03438H2.03401H2.03363H2.03325H2.03287H2.0325H2.03212H2.03175H2.03137H2.031H2.03062H2.03025H2.02988H2.02951H2.02914H2.02876H2.02839H2.02802H2.02765H2.02729H2.02692H2.02655H2.02618H2.02581H2.02545H2.02508H2.02471H2.02435H2.02398H2.02362H2.02325H2.02289H2.02253H2.02216H2.0218H2.02144H2.02108H2.02072H2.02035H2.01999H2.01963H2.01927H2.01891H2.01855H2.01819H2.01783H2.01748H2.01712H2.01676H2.0164H2.01604H2.01569H2.01533H2.01497H2.01461H2.01426H2.0139H2.01355H2.01319H2.01283H2.01248H2.01212H2.01177H2.01141H2.01106H2.01071H2.01035H2.01H2.00964H2.00929H2.00894H2.00858H2.00823H2.00788H2.00752H2.00717H2.00682H2.00646H2.00611H2.00576H2.0054H2.00505H2.0047H2.00435H2.00399H2.00364H2.00329H2.00294H2.00259H2.00223H2.00188H2.00153H2.00118H2.00082H2.00047H2.00012H1.99977H1.99941H1.99906H1.99871H1.99836H1.998H1.99765H1.9973H1.99695H1.99659H1.99624H1.99589H1.99553H1.99518H1.99483H1.99447H1.99412H1.99376H1.99341H1.99306H1.9927H1.99235H1.99199H1.99164H1.99128H1.99093H1.99057H1.99022H1.98986H1.9895H1.98915H1.98879H1.98843H1.98808H1.98772H1.98736H1.987H1.98665H1.98629H1.98593H1.98557H1.98521H1.98485H1.98449H1.98413H1.98377H1.98341H1.98305H1.98268H1.98232H1.98196H1.9816H1.98123H1.98087H1.98051H1.98014H1.97978H1.97941H1.97905H1.97868H1.97832H1.97795H1.97758H1.97721H1.97685H1.97648H1.97611H1.97574H1.97537H1.975H1.97463H1.97426H1.97388H1.97351H1.97314H1.97276H1.97239H1.97202H1.97164H1.97126H1.97089H1.97051H1.97013H1.96976H1.96938H1.969H1.96862H1.96824H1.96786H1.96748H1.96709H1.96671H1.96633H1.96594H1.96556H1.96517H1.96479H1.9644H1.96401H1.96363H1.96324H1.96285H1.96246H1.96207H1.96167H1.96128H1.96089H1.9605H1.9601H1.95971H1.95931H1.95891H1.95852H1.95812H1.95772H1.95732H1.95692H1.95652H1.95611H1.95571H1.95531H1.9549H1.9545H1.95409H1.95368H1.95327H1.95287H1.95246H1.95204H1.95163H1.95122H1.95081H1.95039H1.94998H1.94956H1.94915H1.94873H1.94831H1.94789H1.94747H1.94705H1.94662H1.9462H1.94578H1.94535H1.94492H1.9445H1.94407H1.94364H1.94321H1.94278H1.94234H1.94191H1.94147H1.94104H1.9406H1.94016H1.93973H1.93929H1.93884H1.9384H1.93796H1.93752H1.93707H1.93662H1.93618H1.93573H1.93528H1.93483H1.93437H1.93392H1.93347H1.93301H1.93255H1.9321H1.93164H1.93118H1.93072H1.93025H1.92979H1.92932H1.92886H1.92839H1.92792H1.92745H1.92698H1.92651H1.92603H1.92556H1.92508H1.92461H1.92413H1.92365H1.92317H1.92268H1.9222H1.92171H1.92123H1.77722V4.38369H14.3103V6.75161H3.13517H2.98517H2.98454H2.98389H2.98323H2.98255H2.98186H2.98116H2.98044H2.97971H2.97896H2.9782H2.97743H2.97664H2.97584H2.97502H2.9742H2.97335H2.9725H2.97163H2.97075H2.96985H2.96894H2.96802H2.96709H2.96614H2.96518H2.96421H2.96322H2.96222H2.96121H2.96019H2.95915H2.9581H2.95704H2.95597H2.95488H2.95378H2.95267H2.95155H2.95042H2.94927H2.94811H2.94694H2.94576H2.94456H2.94336H2.94214H2.94091H2.93967H2.93842H2.93716H2.93588H2.93459H2.9333H2.93199H2.93067H2.92934H2.928H2.92665H2.92528H2.92391H2.92252H2.92113H2.91972H2.91831H2.91688H2.91544H2.91399H2.91253H2.91107H2.90959H2.9081H2.9066H2.90509H2.90357H2.90204H2.90051H2.89896H2.8974H2.89583H2.89426H2.89267H2.89107H2.88947H2.88785H2.88623H2.8846H2.88295H2.8813H2.87964H2.87797H2.87629H2.87461H2.87291H2.87121H2.86949H2.86777H2.86604H2.8643H2.86256H2.8608H2.85904H2.85726H2.85548H2.8537H2.8519H2.85009H2.84828H2.84646H2.84463H2.8428H2.84095H2.8391H2.83725H2.83538H2.83351H2.83162H2.82974H2.82784H2.82594H2.82403H2.82211H2.82019H2.81826H2.81632H2.81438H2.81242H2.81047H2.8085H2.80653H2.80455H2.80257H2.80058H2.79858H2.79658H2.79457H2.79255H2.79053H2.7885H2.78647H2.78443H2.78238H2.78033H2.77828H2.77621H2.77415H2.77207H2.76999H2.76791H2.76582H2.76372H2.76162H2.75952H2.75741H2.75529H2.75317H2.75104H2.74891H2.74678H2.74464H2.74249H2.74034H2.73819H2.73603H2.73387H2.7317H2.72953H2.72735H2.72517H2.72299H2.7208H2.71861H2.71641H2.71421H2.712H2.7098H2.70758H2.70537H2.70315H2.70093H2.6987H2.69647H2.69424H2.692H2.68976H2.68752H2.68528H2.68303H2.68078H2.67852H2.67626H2.674H2.67174H2.66948H2.66721H2.66494H2.66266H2.66039H2.65811H2.65583H2.65355H2.65126H2.64898H2.64669H2.6444H2.6421H2.63981H2.63751H2.63521H2.63291H2.63061H2.62831H2.626H2.6237H2.62139H2.61908H2.61677H2.61446H2.61214H2.60983H2.60752H2.6052H2.60288H2.60057H2.59825H2.59593H2.59361H2.59129H2.58897H2.58665H2.58432H2.582H2.57968H2.57736H2.57503H2.57271H2.57039H2.56806H2.56574H2.56342H2.5611H2.55877H2.55645H2.55413H2.55181H2.54949H2.54717H2.54485H2.54253H2.54021H2.53789H2.53558H2.53326H2.53095H2.52863H2.52632H2.52401H2.5217H2.51939H2.51708H2.51477H2.51247H2.51017H2.50787H2.50557H2.50327H2.50097H2.49868H2.49638H2.49409H2.4918H2.48952H2.48723H2.48495H2.48267H2.48039H2.47812H2.47584H2.47357H2.47131H2.46904H2.46678H2.46452H2.46226H2.46001H2.45776H2.45551H2.45326H2.45102H2.44878H2.44655H2.44431H2.44208H2.43986H2.43764H2.43542H2.4332H2.43099H2.42878H2.42658H2.42438H2.42218H2.41999H2.4178H2.41562H2.41344H2.41126H2.40909H2.40693H2.40476H2.40261H2.40045H2.3983H2.39616H2.39402H2.39188H2.38975H2.38763H2.38551H2.38339H2.38128H2.37918H2.37708H2.37498H2.37289H2.37081H2.36873H2.36666H2.36459H2.36253H2.36047H2.35842H2.35638H2.35434H2.3523H2.35028H2.34826H2.34624H2.34423H2.34223H2.34023H2.33824H2.33626H2.33428H2.33231H2.33035H2.32839H2.32644H2.3245H2.32256H2.32063H2.31871H2.31679H2.31488H2.31298H2.31109H2.3092H2.30732H2.30545H2.30358H2.30172H2.29987H2.29803H2.2962H2.29437H2.29255H2.29074H2.28893H2.28714H2.28535H2.28357H2.2818H2.28004H2.27828H2.27654H2.2748H2.27307H2.27135H2.26964H2.26793H2.26624H2.26455H2.26288H2.26121H2.25955H2.2579H2.25626H2.25462H2.253H2.25139H2.24978H2.24819H2.2466H2.24503H2.24346H2.2419H2.24036H2.23882H2.23729H2.23577H2.23427H2.23277H2.23128H2.2298H2.22834H2.22688H2.22543H2.224H2.22257H2.22116H2.21975H2.21836H2.21697H2.2156H2.21424H2.21289H2.21155H2.21022H2.2089H2.20759H2.2063H2.20501H2.20374H2.20248H2.20122H2.19999H2.19876H2.19754H2.19634H2.19514H2.19396H2.19279H2.19164H2.19049H2.18936H2.18824H2.18713H2.18603H2.18495H2.18387H2.18281H2.18177H2.18073H2.17971H2.1787H2.1777H2.17672H2.17575H2.17479H2.17384H2.17291H2.17199H2.17108H2.17019H2.16931H2.16844H2.16759H2.16675H2.16592H2.16511H2.16431H2.16352H2.16275H2.16199H2.16125H2.16052H2.1598H2.1591H2.15841H2.15773H2.15707H2.15643H2.1558H2.15518H2.15458H2.15399H2.15341H2.15285H2.15231H2.15178H2.15127H2.15077H2.15028H2.14981H2.14936H2.14892H2.14849H2.14808H2.14769H2.14731H2.14695H2.1466H2.14627H2.14595H2.14565H2.14536H2.14509H2.14484H2.1446H2.14438H2.14418H2.14399H2.14381H2.14366H2.14351H2.14339H2.14328H2.14319H2.14312H2.14306H2.14302H2.14299ZM4.29474 10.7788H11.7928C11.9157 10.7788 12.0336 10.7299 12.1206 10.643C12.2075 10.556 12.2564 10.4381 12.2564 10.3152C12.2564 10.1922 12.2075 10.0743 12.1206 9.98734C12.0336 9.9004 11.9157 9.85155 11.7928 9.85155H4.29474C4.17178 9.85155 4.05386 9.9004 3.96692 9.98734C3.87998 10.0743 3.83113 10.1922 3.83113 10.3152C3.83113 10.4381 3.87998 10.556 3.96692 10.643C4.05386 10.7299 4.17178 10.7788 4.29474 10.7788ZM5.64207 13.3852H10.4454C10.5684 13.3852 10.6863 13.3364 10.7733 13.2495C10.8602 13.1625 10.909 13.0446 10.909 12.9216C10.909 12.7987 10.8602 12.6808 10.7733 12.5938C10.6863 12.5069 10.5684 12.458 10.4454 12.458H5.64207C5.51911 12.458 5.40119 12.5069 5.31425 12.5938C5.2273 12.6808 5.17846 12.7987 5.17846 12.9216C5.17846 13.0446 5.2273 13.1625 5.31425 13.2495C5.40119 13.3364 5.51911 13.3852 5.64207 13.3852ZM4.29474 18.598H11.7928C11.9157 18.598 12.0336 18.5491 12.1206 18.4622C12.2075 18.3752 12.2564 18.2573 12.2564 18.1344C12.2564 18.0114 12.2075 17.8935 12.1206 17.8065C12.0336 17.7196 11.9157 17.6708 11.7928 17.6708H4.29474C4.17178 17.6708 4.05386 17.7196 3.96692 17.8065C3.87998 17.8935 3.83113 18.0114 3.83113 18.1344C3.83113 18.2573 3.87998 18.3752 3.96692 18.4622C4.05386 18.5491 4.17178 18.598 4.29474 18.598Z" fill="white" stroke="white" stroke-width="0.3"/>
</g>
</svg>
