<svg xmlns="http://www.w3.org/2000/svg" width="24" height="24" viewBox="0 0 24 24">
  <path d="M13 9H19"  stroke-linecap="round"/>
  <path d="M13 6H19"  stroke-linecap="round"/>
  <path d="M14 12L19 12"  stroke-linecap="round"/>
  <path d="M13 15H19"  stroke-linecap="round"/>
  <path d="M13 18H19" stroke-linecap="round"/>
  <path fill-rule="evenodd" clip-rule="evenodd" d="M9 3H21V21H9V17.917C8.67479 17.9716 8.34071 18 8 18V21C8 21.5523 8.44772 22 9 22H21C21.5523 22 22 21.5523 22 21V3C22 2.44772 21.5523 2 21 2H9C8.44772 2 8 2.44772 8 3V6C8.34071 6 8.67479 6.0284 9 6.08296V3Z"/>
  <mask id="path-7-inside-1_2682_1634">
    <path fill-rule="evenodd" clip-rule="evenodd" d="M8 18C11.3137 18 14 15.3137 14 12C14 8.68629 11.3137 6 8 6C4.68629 6 2 8.68629 2 12C2 15.3137 4.68629 18 8 18ZM5.94971 11.9983L6.9726 12.9014L9.94971 10.0002L11 10.9909L6.90909 14.573L5 12.9014L5.94971 11.9983Z"/>
  </mask>
  <path fill-rule="evenodd" clip-rule="evenodd" d="M8 18C11.3137 18 14 15.3137 14 12C14 8.68629 11.3137 6 8 6C4.68629 6 2 8.68629 2 12C2 15.3137 4.68629 18 8 18ZM5.94971 11.9983L6.9726 12.9014L9.94971 10.0002L11 10.9909L6.90909 14.573L5 12.9014L5.94971 11.9983Z"/>
  <path d="M6.9726 12.9014L6.31077 13.651L7.00617 14.265L7.67052 13.6176L6.9726 12.9014ZM5.94971 11.9983L6.61154 11.2487L5.92464 10.6422L5.26062 11.2736L5.94971 11.9983ZM9.94971 10.0002L10.6359 9.27278L9.93844 8.61491L9.25179 9.28404L9.94971 10.0002ZM11 10.9909L11.6588 11.7433L12.4865 11.0185L11.6862 10.2635L11 10.9909ZM6.90909 14.573L6.25032 15.3254L6.90909 15.9022L7.56786 15.3254L6.90909 14.573ZM5 12.9014L4.31091 12.1767L3.51679 12.9318L4.34123 13.6537L5 12.9014ZM13 12C13 14.7614 10.7614 17 8 17V19C11.866 19 15 15.866 15 12H13ZM8 7C10.7614 7 13 9.23858 13 12H15C15 8.13401 11.866 5 8 5V7ZM3 12C3 9.23858 5.23858 7 8 7V5C4.13401 5 1 8.13401 1 12H3ZM8 17C5.23858 17 3 14.7614 3 12H1C1 15.866 4.13401 19 8 19V17ZM7.63444 12.1517L6.61154 11.2487L5.28788 12.748L6.31077 13.651L7.63444 12.1517ZM9.25179 9.28404L6.27469 12.1852L7.67052 13.6176L10.6476 10.7164L9.25179 9.28404ZM11.6862 10.2635L10.6359 9.27278L9.26354 10.7277L10.3138 11.7184L11.6862 10.2635ZM7.56786 15.3254L11.6588 11.7433L10.3412 10.2386L6.25032 13.8207L7.56786 15.3254ZM4.34123 13.6537L6.25032 15.3254L7.56786 13.8207L5.65877 12.149L4.34123 13.6537ZM5.26062 11.2736L4.31091 12.1767L5.68909 13.6261L6.63879 12.723L5.26062 11.2736Z"  mask="url(#path-7-inside-1_2682_1634)"/>
</svg>
