<svg xmlns="http://www.w3.org/2000/svg" width="24" height="24" viewBox="0 0 24 24" >
<mask id="mask0_2736_2974" style="mask-type:alpha" maskUnits="userSpaceOnUse" x="2" y="2" width="20" height="20">
<rect x="2" y="2" width="20" height="20" fill="#D9D9D9"/>
</mask>
<g mask="url(#mask0_2736_2974)">
<path fill-rule="evenodd" clip-rule="evenodd" d="M9 3V6.08296C10.5967 6.35083 11.9796 7.24934 12.8837 8.5136C12.921 8.50471 12.96 8.5 13 8.5H19C19.2761 8.5 19.5 8.72386 19.5 9C19.5 9.27614 19.2761 9.5 19 9.5H13.456C13.7394 10.1176 13.9211 10.7915 13.9795 11.5004C13.9863 11.5001 13.9931 11.5 14 11.5L19 11.5C19.2761 11.5 19.5 11.7239 19.5 12C19.5 12.2761 19.2761 12.5 19 12.5L14 12.5C13.9931 12.5 13.9863 12.4999 13.9795 12.4996C13.9211 13.2085 13.7394 13.8824 13.456 14.5H19C19.2761 14.5 19.5 14.7239 19.5 15C19.5 15.2761 19.2761 15.5 19 15.5H13C12.96 15.5 12.921 15.4953 12.8837 15.4864C11.9796 16.7507 10.5967 17.6492 9 17.917V21H21V3H9ZM8 6V2.5C8 2.22386 8.22386 2 8.5 2H21.5C21.7761 2 22 2.22386 22 2.5V21.5C22 21.7761 21.7761 22 21.5 22H8.5C8.22386 22 8 21.7761 8 21.5V18C4.68629 18 2 15.3137 2 12C2 8.68629 4.68629 6 8 6ZM13 5.5C12.7239 5.5 12.5 5.72386 12.5 6C12.5 6.27614 12.7239 6.5 13 6.5H19C19.2761 6.5 19.5 6.27614 19.5 6C19.5 5.72386 19.2761 5.5 19 5.5H13ZM12.5 18C12.5 17.7239 12.7239 17.5 13 17.5H19C19.2761 17.5 19.5 17.7239 19.5 18C19.5 18.2761 19.2761 18.5 19 18.5H13C12.7239 18.5 12.5 18.2761 12.5 18ZM5.94971 11.9983L6.9726 12.9014L9.94971 10.0002L11 10.9909L6.90909 14.573L5 12.9014L5.94971 11.9983Z" />
</g>
</svg>
