<svg xmlns="http://www.w3.org/2000/svg" width="24" height="24" viewBox="0 0 24 24" fill="none">
  <path d="M4 14C4 16.21 7.58 18 12 18C12.1663 18 12.3314 17.9962 12.4951 17.9912C12.9591 19.1083 13.7264 20.0665 14.6934 20.7666C13.8518 20.9169 12.9452 21 12 21C7.58 21 4 19.21 4 17V14ZM4 9C4 11.21 7.58 13 12 13C12.1686 13 12.3359 12.9963 12.502 12.9912C12.1787 13.7632 12 14.6107 12 15.5C12 15.6679 12.008 15.8343 12.0205 15.999C12.0137 15.999 12.0068 16 12 16C7.58 16 4 14.21 4 12V9ZM12 3C16.42 3 20 4.79 20 7C20 7.73528 19.6018 8.42183 18.9102 9.01367C18.7745 9.00522 18.6378 9 18.5 9C16.716 9 15.0993 9.71817 13.9248 10.8818C13.3083 10.9579 12.6637 11 12 11C7.58 11 4 9.21 4 7C4 4.79 7.58 3 12 3ZM20 9.17578C19.9968 9.17502 19.9935 9.17459 19.9902 9.17383C19.9952 9.11613 20 9.05831 20 9V9.17578Z" fill="#666666"/>
  <path d="M20 15H23V17H20V20H18V17H15V15H18V12H20V15Z" fill="#666666"/>
</svg>
