<svg xmlns="http://www.w3.org/2000/svg" width="22" height="22" viewBox="0 0 22 22">
  <path fill-rule="evenodd" clip-rule="evenodd" d="M10.9994 8.18579C12.5528 8.18579 13.8134 9.44643 13.8134 10.9998C13.8134 12.5533 12.5528 13.8139 10.9994 13.8139C9.44594 13.8139 8.1853 12.5533 8.1853 10.9998C8.1853 9.44643 9.44594 8.18579 10.9994 8.18579ZM10.9994 9.7207C10.2932 9.7207 9.72021 10.2937 9.72021 10.9998C9.72021 11.706 10.2932 12.279 10.9994 12.279C11.7055 12.279 12.2785 11.706 12.2785 10.9998C12.2785 10.2937 11.7055 9.7207 10.9994 9.7207Z"/>
  <path fill-rule="evenodd" clip-rule="evenodd" d="M16.2972 10.1036C16.2276 9.68609 16.5089 9.29002 16.9276 9.21946C17.3451 9.14991 17.7411 9.43119 17.8117 9.84987C17.874 10.2233 17.9069 10.6081 17.9069 11C17.9069 14.8118 14.8116 17.9071 10.9999 17.9071C7.18811 17.9071 4.09277 14.8118 4.09277 11C4.09277 7.1883 7.18811 4.09296 10.9999 4.09296C12.901 4.09296 14.6243 4.86247 15.8738 6.10768C16.1736 6.40643 16.1747 6.89258 15.8759 7.19237C15.5771 7.49319 15.091 7.49319 14.7902 7.19443C13.819 6.22638 12.4785 5.62781 11 5.62781C8.0345 5.62781 5.62781 8.03451 5.62781 11C5.62781 13.9655 8.0345 16.3722 11 16.3722C13.9655 16.3722 16.3722 13.9655 16.3722 11C16.3722 10.6951 16.3466 10.3953 16.2975 10.1036L16.2972 10.1036Z"/>
  <path fill-rule="evenodd" clip-rule="evenodd" d="M19.6771 7.21482C19.5072 6.82595 19.6843 6.37369 20.0722 6.20375C20.46 6.03382 20.9133 6.21095 21.0832 6.59878C21.6727 7.94749 22 9.43529 22 11C22 17.0712 17.0708 22 11 22C4.92881 22 0 17.0708 0 11C0 4.92881 4.92924 0 11 0C13.9972 0 16.7151 1.20139 18.7 3.14757C19.0029 3.44427 19.007 3.93046 18.7103 4.23227C18.4146 4.53513 17.9274 4.54027 17.6256 4.24357C15.9178 2.56855 13.5785 1.53503 11 1.53503C5.77609 1.53503 1.53492 5.77642 1.53492 11.0001C1.53492 16.2241 5.77631 20.4653 11 20.4653C16.224 20.4653 20.4652 16.2239 20.4652 11.0001C20.4652 9.65451 20.1837 8.37436 19.6773 7.21511L19.6771 7.21482Z"/>
  <path fill-rule="evenodd" clip-rule="evenodd" d="M13.0769 10.0075C12.7781 10.3073 12.2909 10.3073 11.9922 10.0075C11.6924 9.70878 11.6924 9.22158 11.9922 8.92285L17.62 3.295C17.9188 2.99521 18.406 2.99521 18.7047 3.295C19.0045 3.59376 19.0045 4.08096 18.7047 4.3797L13.0769 10.0075Z"/>
</svg>
