<svg xmlns="http://www.w3.org/2000/svg" width="36" height="36" viewBox="0 0 36 36" fill="none">
<g id="socials">
<path id="bg" d="M36 18C36 8.05888 27.9411 0 18 0C8.05888 0 0 8.05888 0 18C0 27.9411 8.05888 36 18 36C27.9411 36 36 27.9411 36 18Z" fill="#231E1B"/>
<path id="githab" fill-rule="evenodd" clip-rule="evenodd" d="M17.9725 9.216C13.0183 9.216 9 13.2344 9 18.1885C9 22.1518 11.5872 25.5096 15.1101 26.7206C15.5505 26.7756 15.7156 26.5004 15.7156 26.2802C15.7156 26.06 15.7156 25.5096 15.7156 24.7389C13.2385 25.2894 12.6881 23.5279 12.6881 23.5279C12.3028 22.4821 11.6972 22.2068 11.6972 22.2068C10.8716 21.6564 11.7523 21.6564 11.7523 21.6564C12.633 21.7114 13.1284 22.5922 13.1284 22.5922C13.9541 23.9683 15.2202 23.583 15.7156 23.3628C15.7706 22.7573 16.0459 22.372 16.2661 22.1518C14.2844 21.9316 12.1927 21.161 12.1927 17.6931C12.1927 16.7022 12.5229 15.9316 13.1284 15.271C13.0734 15.1059 12.7431 14.1701 13.2385 12.9591C13.2385 12.9591 14.0092 12.7389 15.7156 13.8949C16.4312 13.6747 17.2018 13.6197 17.9725 13.6197C18.7431 13.6197 19.5138 13.7298 20.2294 13.8949C21.9358 12.7389 22.7064 12.9591 22.7064 12.9591C23.2018 14.1701 22.8716 15.1059 22.8165 15.3261C23.367 15.9316 23.7523 16.7573 23.7523 17.7481C23.7523 21.216 21.6606 21.9316 19.6789 22.1518C20.0092 22.427 20.2844 22.9775 20.2844 23.8032C20.2844 25.0142 20.2844 25.95 20.2844 26.2802C20.2844 26.5004 20.4495 26.7756 20.8899 26.7206C24.4679 25.5096 27 22.1518 27 18.1885C26.945 13.2344 22.9266 9.216 17.9725 9.216Z" fill="white"/>
</g>
</svg>
