<svg width="60" height="60" viewBox="0 0 60 60" fill="none" xmlns="http://www.w3.org/2000/svg">
<path d="M0 0H60V60H0V0Z" fill="#E85E13"/>
<path d="M18.3499 33.2432C18.3499 38.0497 15.5416 40.4259 11.5452 40.4259C8.41893 40.4259 6.39073 38.9798 5.05859 37.1556L7.40483 34.7553C8.59295 36.2615 9.77507 37.1316 11.4852 37.1316C13.3934 37.1316 14.7016 35.8595 14.7016 33.1652V19.8679H18.3499V33.2432ZM24.8066 40.1319H21.3022V24.8424H24.8066V40.1319ZM23.0364 23.1142C21.7763 23.1142 20.7562 22.0941 20.7502 20.84C20.7502 19.5798 21.7703 18.5597 23.0244 18.5537C24.2785 18.5477 25.3046 19.5738 25.3106 20.828V20.834C25.3166 22.0941 24.2965 23.1142 23.0364 23.1142ZM38.842 35.6134C38.842 38.8238 36.3517 40.4199 33.1654 40.4199C30.9932 40.4199 28.593 39.6398 26.6788 38.1337L28.2449 35.7634C29.8951 37.0056 31.6893 37.6476 33.2554 37.6476C34.7616 37.6476 35.6257 37.0116 35.6257 35.9975V35.9375C35.6257 34.7493 34.0055 34.3473 32.2113 33.7953C29.9551 33.1592 27.4348 32.2351 27.4348 29.3068V29.2468C27.4348 26.3545 29.8411 24.5843 32.8774 24.5843C34.7856 24.5843 36.8738 25.2504 38.4939 26.3245L37.1018 28.8148C35.6257 27.9207 34.0595 27.3686 32.7874 27.3686C31.4252 27.3686 30.6452 28.0047 30.6452 28.9048V28.9648C30.6452 30.0629 32.2953 30.5249 34.0895 31.107C36.3157 31.8031 38.836 32.8172 38.836 35.5654L38.842 35.6134ZM48.3109 40.4799C43.7625 40.4799 40.4081 36.9216 40.4081 32.5471C40.4081 28.1727 43.7685 24.5303 48.3409 24.5303C51.2392 24.5303 53.0334 25.6044 54.4495 27.1646L52.2773 29.5108C51.2092 28.3827 50.0751 27.6026 48.3109 27.6026C45.7607 27.6026 43.9125 29.8049 43.9125 32.4931C43.9125 35.2414 45.7967 37.4436 48.4849 37.4436C50.1351 37.4436 51.3532 36.6635 52.4513 35.5354L54.5636 37.6236C53.0574 39.2918 51.2932 40.4799 48.3109 40.4799Z" fill="white"/>
</svg>
