<svg xmlns="http://www.w3.org/2000/svg" width="36" height="36" viewBox="0 0 36 36" fill="none">
<g id="socials">
<rect id="Rectangle 1" width="36" height="36" rx="18" fill="#2878B7"/>
<path id="Vector" d="M25.2 18.6699V23.6341H22.2942V18.9726C22.2942 17.8224 21.8704 17.0354 20.8413 17.0354C20.0543 17.0354 19.57 17.5803 19.3884 18.0646C19.3278 18.2462 19.2673 18.4883 19.2673 18.791V23.6341H16.3614C16.3614 23.6341 16.422 15.7641 16.3614 14.9771H19.2673V16.1879C19.6305 15.5825 20.357 14.735 21.8704 14.735C23.7471 14.735 25.2 16.0063 25.2 18.6699ZM13.3345 10.8C12.3659 10.8 11.7 11.4659 11.7 12.3134C11.7 13.161 12.3054 13.8269 13.274 13.8269C14.3032 13.8269 14.9085 13.161 14.9085 12.3134C14.9691 11.4054 14.3637 10.8 13.3345 10.8ZM11.8816 23.6341H14.7875V14.9771H11.8816V23.6341Z" fill="white"/>
</g>
</svg>
