<svg xmlns="http://www.w3.org/2000/svg" width="24" height="24" viewBox="0 0 24 24">
  <path fill-rule="evenodd" clip-rule="evenodd" d="M12 22C17.5234 22 22 17.5234 22 12C22 6.47656 17.5234 2 12 2C6.47656 2 2 6.47656 2 12C2 17.5234 6.47656 22 12 22ZM7.53906 8.17969V16.5469H8.74219V8.17969H7.53906ZM13.7578 8.17969H10.5078V16.5547H13.7734C16.5312 16.5547 18.2109 14.5156 18.2109 12.3672C18.2109 10.3906 16.8516 8.17969 13.7578 8.17969ZM13.625 15.4688H11.7109V9.26563H13.5625C15.9062 9.26563 16.9766 10.6875 16.9766 12.3672C16.9766 13.3984 16.3516 15.4688 13.625 15.4688ZM8.14062 7.22656C8.57812 7.22656 8.92969 6.86719 8.92969 6.4375C8.92969 6.00781 8.57812 5.64844 8.14062 5.64844C7.70312 5.64844 7.35156 6 7.35156 6.4375C7.35156 6.86719 7.70312 7.22656 8.14062 7.22656Z"/>
</svg>
