<svg width="87" height="60" viewBox="0 0 87 60" fill="none" xmlns="http://www.w3.org/2000/svg">
<g clip-path="url(#clip0_826_240)">
<path d="M62.1233 21.2798L62.5202 21.1324C62.164 20.4799 61.9355 19.723 61.9355 19.0246C61.9355 16.5637 63.4536 15.9777 65.6945 15.9777C67.9495 15.9777 69.4529 16.6761 69.4529 19.1372C69.4529 19.723 69.3204 20.203 69.0636 20.784H71.5206V22.2773H62.1233V21.2798ZM65.6945 17.4949C64.4082 17.4949 63.2927 17.7135 63.2927 19.1372C63.2927 19.8513 63.4389 20.3581 63.6376 20.784H67.7669C67.8516 20.6212 68.0948 19.9529 68.0948 19.1372C68.0948 17.7135 66.9897 17.4949 65.6945 17.4949Z" fill="#2A51AA"/>
<path d="M69.2644 55.4968V57.0313H61.0441V59.7266H59.667V52.7839H61.0441V55.4968H69.2644Z" fill="#2A51AA"/>
<path d="M64.1856 46.9501C63.5129 46.9501 63.292 47.4886 63.292 48.1661C63.292 48.8996 63.4542 49.5014 63.6387 49.8988H69.2648V51.3828H59.6655V49.8988H62.3951C62.1349 49.3698 61.9367 48.562 61.9367 47.986C61.9367 46.182 62.7924 45.4582 64.2357 45.4582H69.2648L69.2426 46.9501H64.1856Z" fill="#2A51AA"/>
<path d="M64.4603 31.7783C61.8537 31.7783 59.4634 31.0057 59.4634 27.8287C59.4634 24.5537 61.8537 23.8903 64.4603 23.8903C67.0593 23.8903 69.4515 24.6503 69.4534 27.8287C69.4534 31.1037 67.0578 31.7783 64.4603 31.7783ZM64.4603 30.1758C66.4589 30.1758 68.0664 29.8416 68.0664 27.8178C68.0664 25.7954 66.4589 25.4898 64.4603 25.4898C62.4592 25.4898 60.8499 25.8161 60.8499 27.8352C60.8499 29.8605 62.4592 30.1758 64.4603 30.1758Z" fill="#2A51AA"/>
<path d="M63.2909 3.59678C63.2909 3.43088 63.2658 2.41551 64.2082 2.41551H69.2651V0.917649H64.2346C62.7928 0.919075 61.937 1.65874 61.937 3.4499C61.937 4.14963 62.1404 4.99672 62.5217 5.63513L62.1243 5.77916V6.78027H69.2651V5.28526H63.6358C63.4532 4.89261 63.2923 4.32408 63.2909 3.59678Z" fill="#2A51AA"/>
<path d="M66.3265 13.1023C67.573 12.9914 68.0711 12.439 68.0711 10.9944C68.0711 10.3217 67.9448 9.63577 67.6691 8.7901H68.9737C69.3318 9.68188 69.4515 10.5371 69.4501 11.3604C69.4515 13.8467 67.9496 14.6416 65.6945 14.6416C63.4896 14.6416 61.9375 13.7657 61.9375 11.3604C61.9361 8.81863 63.7801 8.44167 65.7574 8.43691H66.3265V13.1023ZM65.1098 13.0991V9.96377C64.1594 9.96805 63.1604 10.2091 63.1604 11.4127C63.1604 12.6795 63.9754 13.0295 65.1098 13.0991Z" fill="#2A51AA"/>
<path d="M66.3265 42.5402C67.5735 42.4281 68.0697 41.8738 68.0697 40.4308C68.0697 39.7594 67.9434 39.0753 67.6695 38.2295H68.9742C69.3304 39.1182 69.4515 39.9781 69.4515 40.7983C69.4501 43.2862 67.9496 44.0781 65.6945 44.0781C63.4901 44.0781 61.9375 43.2039 61.9375 40.7983C61.9375 38.2534 63.7801 37.8733 65.7579 37.8733H66.3265V42.5402ZM65.1746 42.5179V39.3811C64.2243 39.3858 63.2237 39.6264 63.2237 40.8332C63.2237 42.0983 64.0398 42.45 65.1746 42.5179Z" fill="#2A51AA"/>
<path d="M75.1147 53.8065H81.1997C83.3554 53.8065 83.5181 55.1065 83.5181 55.9109C83.5181 56.7157 83.3526 58.011 81.1983 58.0091H75.1147V59.4917L81.3875 59.4932C84.4732 59.4959 84.9553 57.2632 84.9553 55.9109C84.9567 54.5585 84.4732 52.321 81.3875 52.321L75.1147 52.3223V53.8065Z" fill="#2A51AA"/>
<path d="M75.5243 42.0241C76.0631 42.0224 76.4903 42.4579 76.4903 43.0027C76.4903 43.5475 76.0631 43.9814 75.5243 43.9814C74.9746 43.9814 74.5488 43.5475 74.5488 43.0027C74.5488 42.4562 74.9727 42.0241 75.5243 42.0241Z" fill="#2A51AA"/>
<path d="M83.374 43.7383H77.6074V42.2578L83.2401 42.2561C83.497 42.2561 83.61 42.2404 83.61 41.846V41.5942H84.9072C84.928 41.762 84.9356 41.9394 84.9356 42.2831C84.9356 43.1476 84.5117 43.74 83.374 43.7383Z" fill="#2A51AA"/>
<path d="M83.3731 15.0166H77.6084V13.5328L83.2425 13.5311C83.4961 13.5311 83.6124 13.5138 83.6124 13.1226L83.611 12.8742H84.9067C84.9271 13.0357 84.9365 13.2162 84.9365 13.5614C84.9365 14.4243 84.5108 15.0166 83.3731 15.0166Z" fill="#2A51AA"/>
<path d="M77.6093 35.6803L77.6079 34.07L84.9346 36.8745V38.0842L77.6079 40.9033V39.2847L83.1692 37.4841L77.6093 35.6803Z" fill="#2A51AA"/>
<path d="M81.8156 32.0896C83.0621 31.9772 83.557 31.4373 83.557 30.0294C83.557 29.3722 83.4325 28.7039 83.1567 27.8819H84.4581C84.8195 28.7515 84.9359 29.5861 84.9359 30.3889C84.9359 32.8149 83.434 33.5879 81.1822 33.5879C78.9773 33.5879 77.4219 32.7311 77.4219 30.3889C77.4219 27.9071 79.2673 27.5336 81.2418 27.5367L81.8156 27.5384V32.0896ZM80.5956 29.0033C79.6457 29.0049 78.6461 29.2422 78.6461 30.4362C78.6461 31.6907 79.4593 32.0391 80.5956 32.1041V29.0033Z" fill="#2A51AA"/>
<path d="M78.8883 22.339C78.8329 22.6335 78.8173 22.9583 78.8173 23.3319C78.8173 23.8815 78.9384 24.3613 79.1149 24.7334H84.7618V26.2109H77.5992V25.2212L77.998 25.0772C77.656 24.6289 77.4351 23.8165 77.4351 23.2955C77.4351 22.9805 77.4351 22.6066 77.4966 22.3375L78.8883 22.339Z" fill="#2A51AA"/>
<path d="M82.5975 16.2156C83.7367 16.2156 84.9349 16.9297 84.9349 19.1391C84.9349 19.8279 84.7519 20.8667 84.5361 21.3972L83.1506 21.3989C83.3525 20.8254 83.5791 20.0257 83.5791 19.1246C83.5791 17.9733 83.0924 17.6424 82.6103 17.6424C82.1344 17.6424 81.8208 17.8134 81.7196 18.9283C81.5355 21.0394 80.7474 21.4668 79.6882 21.4668C78.6201 21.4668 77.4204 20.7987 77.4204 18.7289C77.4204 18.0732 77.5122 17.2877 77.84 16.5433L79.1934 16.545C78.9649 17.245 78.7776 17.8992 78.7776 18.7432C78.7776 19.8404 79.1825 20.0701 79.6916 20.0701C80.1045 20.0701 80.3169 19.8562 80.4182 18.7715C80.6121 16.6971 81.3354 16.2156 82.5975 16.2156Z" fill="#2A51AA"/>
<path d="M84.8401 7.57424C84.9077 7.90699 84.9347 8.39138 84.9347 8.93947C84.9347 10.1036 84.3405 11.0125 82.9379 11.0125L78.8672 11.0139V12.2637H77.6855L77.608 11.0139H75.8099L75.6064 9.55839H77.608L77.6094 7.58232H78.8672V9.55839H82.76C83.3617 9.55839 83.5841 9.2342 83.5841 8.48645C83.5855 8.19696 83.559 7.70449 83.5354 7.57424H84.8401Z" fill="#2A51AA"/>
<path d="M77.6074 0.00229979V1.53676L82.7623 3.32793L77.6074 4.88758V6.53613L84.409 4.03716L87 5.04778V3.65877L77.6074 0.00229979Z" fill="#2A51AA"/>
<path d="M78.7889 47.7194C78.7889 47.5558 78.7638 46.5679 79.7014 46.5679H84.7617V45.1014H79.7331C78.2908 45.1014 77.4336 45.8269 77.4336 47.5749C77.4336 48.2609 77.6356 49.0889 78.0169 49.7131L77.6181 49.8524V50.8291H84.7617V49.3727H79.1309C78.9464 48.9876 78.7889 48.43 78.7889 47.7194Z" fill="#2A51AA"/>
<path d="M75.5243 13.1826C76.0631 13.1826 76.4903 13.6151 76.4903 14.1612C76.4903 14.7075 76.0631 15.1416 75.5243 15.1416C74.9746 15.1416 74.5488 14.7075 74.5488 14.1612C74.5488 13.6134 74.9746 13.1826 75.5243 13.1826Z" fill="#2A51AA"/>
<path d="M21.9013 29.7296C15.7613 31.3369 9.51734 27.7087 7.95237 21.6261C6.38925 15.5434 10.0974 9.3086 16.2371 7.70093C22.3756 6.09373 28.6194 9.72358 30.1827 15.8062C31.7462 21.8889 28.0364 28.1236 21.9013 29.7296ZM47.4346 0.411747H3.01482C1.63131 0.411747 0 1.77556 0 3.19594V35.668C0 49.93 11.2508 60 25.1271 60C39.0082 60 50.2588 49.93 50.2588 35.668V3.34139C50.2588 1.92102 48.8169 0.411747 47.4346 0.411747Z" fill="#2A51AA"/>
</g>
<defs>
<clipPath id="clip0_826_240">
<rect width="87" height="60" fill="white"/>
</clipPath>
</defs>
</svg>
