<svg xmlns="http://www.w3.org/2000/svg" width="144" height="48" viewBox="0 0 144 48" fill="none">
<g id="OU_Master_LOGO_BLUE_63mm 1" clip-path="url(#clip0_1039_1088)">
<path id="Vector" d="M36.7383 0H2.77732C1.24283 0 0 1.27136 0 2.84108V27.7899C0 38.9526 8.84695 48 19.7565 48C30.6661 48 39.513 38.9526 39.513 27.7899V2.84108C39.5157 1.27136 38.2728 0 36.7383 0ZM14.5146 24.0349C9.56952 24.0349 5.56251 19.9359 5.56251 14.8774C5.56251 9.81879 9.57215 5.71979 14.5146 5.71979C19.457 5.71979 23.4666 9.81879 23.4666 14.8774C23.4666 19.9359 19.4596 24.0349 14.5146 24.0349Z" fill="#060645"/>
<g id="Group">
<path id="Vector_2" d="M48.2811 20.6402H51.7075V5.81119H55.9483V2.7067H43.9825V5.81119H48.2811V20.6402Z" fill="#060645"/>
<path id="Vector_3" d="M96.5439 20.7047C101.203 20.7047 104.994 16.6675 104.994 11.7057C104.994 6.74388 101.203 2.7067 96.5439 2.7067C91.8853 2.7067 88.0937 6.74388 88.0937 11.7057C88.0937 16.6675 91.8853 20.7047 96.5439 20.7047ZM96.5439 6.20362C99.3212 6.20362 101.578 8.67377 101.578 11.7084C101.578 14.743 99.3186 17.2131 96.5439 17.2131C93.7692 17.2131 91.5095 14.743 91.5095 11.7084C91.5095 8.67377 93.7692 6.20362 96.5439 6.20362Z" fill="#060645"/>
<g id="Group_2">
<path id="Vector_4" d="M76.2487 29.2602H72.9459V42.1539H76.2487V29.2602Z" fill="#060645"/>
<path id="Vector_5" d="M74.5987 24.1962C73.4951 24.1962 72.5965 25.1155 72.5965 26.2444C72.5965 27.3733 73.4951 28.2925 74.5987 28.2925C75.7022 28.2925 76.6008 27.3733 76.6008 26.2444C76.6008 25.1155 75.7022 24.1962 74.5987 24.1962Z" fill="#060645"/>
</g>
<g id="Group_3">
<path id="Vector_6" d="M123.941 29.2602H120.638V42.1539H123.941V29.2602Z" fill="#060645"/>
<path id="Vector_7" d="M122.289 24.1962C121.185 24.1962 120.286 25.1155 120.286 26.2444C120.286 27.3733 121.185 28.2925 122.289 28.2925C123.392 28.2925 124.291 27.3733 124.291 26.2444C124.291 25.1155 123.392 24.1962 122.289 24.1962Z" fill="#060645"/>
</g>
<path id="Vector_8" d="M113.471 32.2141C113.712 32.0206 114.054 31.9212 114.49 31.9212C115.05 31.9212 115.559 32.0771 116.009 32.3835C116.455 32.6872 116.779 33.1038 116.968 33.6145L117.047 33.8295L119.63 32.5877L119.564 32.405C119.18 31.3567 118.529 30.5315 117.625 29.9509C116.726 29.3757 115.68 29.0828 114.514 29.0828C113.62 29.0828 112.814 29.2494 112.12 29.5773C111.418 29.9079 110.864 30.3783 110.467 30.9723C110.071 31.5717 109.868 32.276 109.868 33.0689C109.868 33.9612 110.149 34.7434 110.701 35.3966C111.248 36.0417 112.057 36.5282 113.108 36.84L115.071 37.4044C115.307 37.477 115.531 37.5657 115.73 37.6705C115.917 37.77 116.067 37.8882 116.172 38.0226C116.266 38.1409 116.314 38.2995 116.314 38.4876C116.314 38.8182 116.193 39.0655 115.93 39.2698C115.659 39.4821 115.278 39.587 114.797 39.587C114.167 39.587 113.586 39.4015 113.071 39.0359C112.554 38.6704 112.141 38.1516 111.849 37.4958L111.763 37.2996L109.245 38.5333L109.303 38.7107C109.671 39.8208 110.354 40.7132 111.342 41.361C112.322 42.006 113.484 42.3313 114.8 42.3313C115.738 42.3313 116.568 42.1646 117.27 41.8367C117.979 41.5061 118.542 41.0357 118.944 40.4444C119.348 39.845 119.556 39.1488 119.556 38.3694C119.556 37.4474 119.267 36.6545 118.697 36.0121C118.137 35.3831 117.336 34.9074 116.319 34.5983L114.401 34.0123C114.13 33.9236 113.891 33.8295 113.689 33.7301C113.507 33.6414 113.365 33.5258 113.268 33.3887C113.176 33.2624 113.132 33.1038 113.132 32.9264C113.132 32.6254 113.239 32.3996 113.473 32.2114H113.471V32.2141Z" fill="#060645"/>
<path id="Vector_9" d="M67.2967 9.88062C66.8999 9.1549 66.3376 8.57969 65.6256 8.17114C64.9161 7.76527 64.0937 7.5583 63.1819 7.5583C62.2702 7.5583 61.5135 7.75989 60.8487 8.16039C60.5597 8.33241 60.2759 8.60388 60.0473 8.88611V2.7067H56.8627V20.6348H60.0499V13.2431C60.0499 12.719 60.1498 12.1331 60.3468 11.7594C60.5413 11.3885 60.8198 11.0929 61.1692 10.8859C61.5213 10.6789 61.926 10.5714 62.3779 10.5714C62.8299 10.5714 63.2529 10.6762 63.5971 10.8832C63.9387 11.0902 64.2119 11.3858 64.409 11.7568C64.6061 12.1304 64.7059 12.5873 64.7059 13.1114V20.6321H67.8931V12.4018C67.8931 11.453 67.6934 10.6037 67.2967 9.88062Z" fill="#060645"/>
<path id="Vector_10" d="M56.4476 34.8563C56.4476 37.0496 54.7029 38.8371 52.5588 38.8371C50.4147 38.8371 48.67 37.0523 48.67 34.8563V24.1962H45.249V34.8563C45.249 38.9795 48.5281 42.334 52.5588 42.334C56.5894 42.334 59.8686 38.9795 59.8686 34.8563V24.1962H56.4476V34.8563Z" fill="#060645"/>
<path id="Vector_11" d="M81.0598 14.485C81.1044 14.157 81.1071 13.9904 81.1071 13.7754C81.1071 12.926 80.9678 12.1196 80.6972 11.3858C80.4239 10.6494 80.0245 9.98546 79.5095 9.41026C78.9919 8.83506 78.3587 8.37812 77.6203 8.05288C76.8846 7.72765 76.0201 7.561 75.0532 7.561C73.9023 7.561 72.8461 7.85129 71.9133 8.4265C70.9805 8.99902 70.2369 9.78925 69.6983 10.773C69.1596 11.7568 68.889 12.8964 68.889 14.1651C68.889 15.4338 69.157 16.517 69.6878 17.5196C70.2185 18.5275 70.97 19.3366 71.9264 19.9252C72.8802 20.5139 74.0074 20.8122 75.2792 20.8122C76.1226 20.8122 76.9109 20.6778 77.6151 20.4171C78.3192 20.1537 78.9393 19.7828 79.4543 19.3178C79.9746 18.8501 80.3608 18.3017 80.6052 17.6916L80.6525 17.5733L78.0591 16.2724L77.9961 16.3853C77.7412 16.8503 77.3838 17.2266 76.9372 17.5008C76.4905 17.7749 75.9413 17.9147 75.2976 17.9147C74.6538 17.9147 74.081 17.7588 73.5897 17.4551C73.1009 17.1513 72.7278 16.7132 72.4808 16.1568C72.3468 15.8558 72.2575 15.5252 72.2102 15.1731H80.889C80.889 15.1731 80.9809 15.036 81.0571 14.4903V14.485H81.0598ZM73.4977 10.7488C73.9496 10.4532 74.4751 10.3026 75.0558 10.3026C75.6365 10.3026 76.1936 10.4558 76.6218 10.7596C77.0501 11.0606 77.3654 11.4799 77.5546 11.9987C77.6256 12.1922 77.6729 12.3965 77.7018 12.6142H72.2917C72.3363 12.418 72.3941 12.2325 72.4651 12.0605C72.6989 11.488 73.0458 11.0472 73.4977 10.7515V10.7488Z" fill="#060645"/>
<path id="Vector_12" d="M131.74 14.485C131.785 14.157 131.787 13.9904 131.787 13.7754C131.787 12.926 131.648 12.1196 131.377 11.3858C131.104 10.6494 130.705 9.98546 130.19 9.41026C129.672 8.83506 129.039 8.37812 128.3 8.05288C127.565 7.72765 126.7 7.561 125.733 7.561C124.582 7.561 123.526 7.85129 122.593 8.4265C121.661 8.99902 120.917 9.78925 120.378 10.773C119.84 11.7568 119.569 12.8964 119.569 14.1651C119.569 15.4338 119.837 16.517 120.368 17.5196C120.899 18.5275 121.65 19.3366 122.607 19.9252C123.56 20.5139 124.688 20.8122 125.959 20.8122C126.803 20.8122 127.591 20.6778 128.295 20.4171C128.999 20.1537 129.619 19.7828 130.134 19.3178C130.655 18.8501 131.041 18.3017 131.285 17.6916L131.333 17.5733L128.739 16.2724L128.676 16.3853C128.421 16.8503 128.064 17.2266 127.617 17.5008C127.171 17.7749 126.621 17.9147 125.978 17.9147C125.334 17.9147 124.761 17.7588 124.27 17.4551C123.781 17.1513 123.408 16.7132 123.161 16.1568C123.027 15.8558 122.938 15.5252 122.89 15.1731H131.569C131.569 15.1731 131.661 15.036 131.737 14.4903V14.485H131.74ZM124.178 10.7488C124.63 10.4532 125.155 10.3026 125.736 10.3026C126.317 10.3026 126.874 10.4558 127.302 10.7596C127.73 11.0606 128.046 11.4799 128.235 11.9987C128.306 12.1922 128.353 12.3965 128.382 12.6142H122.972C123.016 12.418 123.074 12.2325 123.145 12.0605C123.379 11.488 123.726 11.0472 124.178 10.7515V10.7488Z" fill="#060645"/>
<path id="Vector_13" d="M100.743 36.0067C100.787 35.6788 100.79 35.5122 100.79 35.2971C100.79 34.4478 100.651 33.6414 100.38 32.9076C100.107 32.1711 99.7075 31.5072 99.1925 30.932C98.6748 30.3568 98.0416 29.8999 97.3033 29.5746C96.5676 29.2494 95.7031 29.0828 94.7361 29.0828C93.5853 29.0828 92.529 29.3731 91.5962 29.9483C90.6635 30.5208 89.9199 31.311 89.3812 32.2948C88.8426 33.2785 88.5719 34.4182 88.5719 35.6869C88.5719 36.9555 88.8399 38.0388 89.3707 39.0413C89.9015 40.0493 90.6529 40.8583 91.6094 41.447C92.5632 42.0356 93.6904 42.334 94.9621 42.334C95.8056 42.334 96.5938 42.1996 97.298 41.9389C98.0022 41.6754 98.6223 41.3045 99.1373 40.8395C99.6575 40.3718 100.044 39.8235 100.288 39.2133L100.335 39.0951L97.7421 37.7942L97.679 37.907C97.4241 38.372 97.0668 38.7483 96.6201 39.0225C96.1734 39.2967 95.6243 39.4364 94.9805 39.4364C94.3368 39.4364 93.764 39.2805 93.2726 38.9768C92.7839 38.6731 92.4108 38.235 92.1638 37.6786C92.0298 37.3775 91.9404 37.0469 91.8932 36.6948H100.572C100.572 36.6948 100.664 36.5577 100.74 36.0121V36.0067H100.743ZM93.1806 32.2706C93.6326 31.9749 94.1581 31.8244 94.7388 31.8244C95.3195 31.8244 95.8765 31.9776 96.3048 32.2813C96.7331 32.5824 97.0484 33.0017 97.2376 33.5204C97.3085 33.714 97.3558 33.9182 97.3847 34.136H91.9746C92.0193 33.9397 92.0771 33.7543 92.148 33.5823C92.3819 33.0097 92.7287 32.5689 93.1806 32.2733V32.2706Z" fill="#060645"/>
<path id="Vector_14" d="M131.044 39.3343C130.571 39.3343 130.179 39.2591 129.882 39.1085C129.593 38.9634 129.38 38.7537 129.246 38.4796C129.11 38.2 129.039 37.8506 129.039 37.4474V31.9185H131.036V29.2602H129.039V26.1718H125.941V29.2602H124.942V31.9185H125.938V37.6141C125.938 39.1005 126.143 40.2724 126.947 41.0949C127.751 41.9174 128.894 42.334 130.35 42.334C130.586 42.334 130.849 42.3179 131.13 42.2856C131.411 42.2533 131.661 42.2211 131.877 42.1888L131.989 42.1727V39.2483L131.414 39.3128C131.272 39.3289 131.149 39.337 131.044 39.337V39.3343Z" fill="#060645"/>
<path id="Vector_15" d="M89.4128 29.2602H85.8183L83.4141 36.8695C83.3563 37.0523 83.3142 37.2404 83.2932 37.4313L83.2406 37.8533L83.1881 37.4313C83.1644 37.2404 83.1224 37.0523 83.0672 36.8722L80.663 29.2629H77.0685L81.806 42.1566H84.6805L89.418 29.2629H89.4128V29.2602Z" fill="#060645"/>
<path id="Vector_16" d="M140.406 29.2602L137.854 36.8695C137.796 37.0523 137.754 37.2404 137.733 37.4313L137.681 37.8533L137.628 37.4313C137.605 37.2404 137.563 37.0523 137.507 36.8722L135.248 29.2629H131.992L135.258 41.1809C135.426 41.8018 135.626 42.0625 136.036 42.1566L133.981 47.6963H137.389L144 29.2629H140.406V29.2602Z" fill="#060645"/>
<path id="Vector_17" d="M135.623 8.64956C135.434 8.05017 135.006 7.73838 134.339 7.73838H132.481V20.6294H135.668V13.1114C135.668 12.5873 135.768 12.1304 135.965 11.7567C136.159 11.3858 136.438 11.0902 136.787 10.8832C137.139 10.6762 137.544 10.5687 137.996 10.5687C138.448 10.5687 138.871 10.6735 139.215 10.8805C139.557 11.0875 139.83 11.3831 140.027 11.7541C140.224 12.1277 140.324 12.5846 140.324 13.1087V20.6267H143.511V12.4018C143.511 11.453 143.312 10.6036 142.915 9.88061C142.518 9.15488 141.956 8.57968 141.244 8.17112C140.534 7.76525 139.712 7.55829 138.8 7.55829C137.888 7.55829 137.132 7.75988 136.467 8.16037C136.167 8.34046 135.894 8.5743 135.668 8.82965C135.668 8.82965 135.647 8.72482 135.621 8.64688L135.623 8.64956Z" fill="#060645"/>
<path id="Vector_18" d="M112.737 7.561C111.437 7.561 110.028 7.91312 109.09 8.83237C109.09 8.83237 109.069 8.72754 109.043 8.64959C108.854 8.0502 108.426 7.7384 107.758 7.7384H105.901V26.1718H109.088V19.5543L109.096 19.5597C109.403 19.8338 109.75 20.065 110.126 20.2504C110.877 20.616 111.71 20.7988 112.603 20.7988C113.796 20.7988 114.879 20.5031 115.817 19.9225C116.755 19.3419 117.506 18.5383 118.05 17.533C118.594 16.5277 118.87 15.3988 118.87 14.1812C118.87 12.9636 118.592 11.8159 118.037 10.8268C116.923 8.84581 115.01 7.561 112.732 7.561H112.737ZM115.21 16.0574C114.934 16.5949 114.54 17.0223 114.043 17.3287C113.547 17.6325 112.969 17.7884 112.328 17.7884C111.686 17.7884 111.158 17.6325 110.667 17.3287C110.178 17.0223 109.787 16.5949 109.511 16.0574C109.232 15.5171 109.09 14.8855 109.09 14.1812C109.09 13.477 109.232 12.8642 109.511 12.3158C109.789 11.7702 110.178 11.3402 110.667 11.0337C111.156 10.73 111.715 10.5741 112.328 10.5741C112.94 10.5741 113.547 10.7327 114.043 11.0445C114.543 11.359 114.934 11.7863 115.21 12.3158C115.489 12.848 115.63 13.477 115.63 14.1812C115.63 14.8855 115.489 15.5171 115.21 16.0574Z" fill="#060645"/>
<path id="Vector_19" d="M64.0228 30.174C63.8336 29.5746 63.4053 29.2629 62.7379 29.2629H60.8802V42.1539H64.0674V34.6359C64.0674 34.1118 64.1673 33.6548 64.3643 33.2812C64.5588 32.9103 64.8373 32.6146 65.1868 32.4077C65.5389 32.2007 65.9435 32.0932 66.3954 32.0932C66.8474 32.0932 67.2704 32.198 67.6146 32.405C67.9562 32.6119 68.2295 32.9076 68.4265 33.2785C68.6236 33.6521 68.7234 34.1091 68.7234 34.6332V42.1512H71.9107V33.9263C71.9107 32.9775 71.711 32.1281 71.3142 31.4051C70.9174 30.6794 70.3551 30.1042 69.6431 29.6956C68.9336 29.2897 68.1112 29.0828 67.1995 29.0828C66.2877 29.0828 65.531 29.2844 64.8662 29.6848C64.5667 29.8649 64.2934 30.0988 64.0674 30.3541C64.0674 30.3541 64.0464 30.2493 64.0201 30.1714L64.0228 30.174Z" fill="#060645"/>
<path id="Vector_20" d="M105.005 30.3568C105.005 30.3568 104.984 30.252 104.957 30.174C104.768 29.5746 104.34 29.2629 103.672 29.2629H101.815V42.1539H105.002V35.0821C105.002 33.9774 105.535 33.2301 105.869 32.8834C106.353 32.3808 107.086 32.1039 107.866 32.1039C108.646 32.1039 109.088 32.2518 109.088 32.2518V29.2279C109.088 29.2279 108.786 29.0801 108.215 29.0801C107.564 29.0801 107.07 29.1285 106.484 29.3408C105.898 29.5531 105.396 29.9671 105.005 30.3541V30.3568Z" fill="#060645"/>
</g>
</g>
<defs>
<clipPath id="clip0_1039_1088">
<rect width="144" height="48" fill="white"/>
</clipPath>
</defs>
</svg>
