<svg xmlns="http://www.w3.org/2000/svg" width="22" height="22" viewBox="0 0 22 22">
  <path d="M5.65174 7.86401C5.92539 7.3991 6.2572 6.97293 6.63769 6.59566L3.40466 3.05052C2.59122 3.82784 1.89764 4.72899 1.35205 5.72231L5.65174 7.86401Z"/>
  <path d="M13.5774 5.35957C14.0669 5.58389 14.5223 5.87009 14.9332 6.20898L18.1753 2.66932C17.3214 1.93287 16.3532 1.3253 15.302 0.87658L13.5774 5.35957Z"/>
  <path d="M21.0024 6.42558L16.7053 8.56765C16.9105 9.04665 17.0564 9.55535 17.1355 10.0859L21.9156 9.63474C21.7747 8.50307 21.4614 7.42401 21.0024 6.42558Z"/>
  <path d="M16.3969 7.94653L20.6935 5.80483C20.1613 4.81574 19.4825 3.91737 18.6858 3.13903L15.4436 6.67789C15.8129 7.05728 16.134 7.4833 16.3969 7.94653Z"/>
  <path d="M4.79784 11.0003C4.79784 10.9036 4.80113 10.807 4.80529 10.7109L0.0240809 10.283C0.00912128 10.52 0 10.7591 0 11.0003C0 11.9173 0.113875 12.8082 0.325528 13.6597L4.94328 12.3351C4.84863 11.9047 4.79784 11.4586 4.79784 11.0003Z"/>
  <path d="M15.7951 14.9299C15.4554 15.3435 15.0631 15.7122 14.6292 16.0268L17.1535 20.114C18.0904 19.4792 18.9246 18.7039 19.6257 17.8183L15.7951 14.9299Z"/>
  <path d="M17.2021 11.0001C17.2021 11.4528 17.1535 11.8942 17.0601 12.3193L21.6772 13.646C21.8877 12.7982 21.9999 11.9119 21.9999 11.0001C21.9999 10.7736 21.9925 10.5488 21.9786 10.325L17.1979 10.7765C17.2005 10.8513 17.2021 10.9254 17.2021 11.0001Z"/>
  <path d="M6.28242 15.0214L2.46094 17.9258C3.1717 18.8009 4.01338 19.5637 4.95656 20.1865L7.4805 16.1037C7.0358 15.7963 6.63299 15.4319 6.28242 15.0214Z"/>
  <path d="M4.87531 10.021C4.96084 9.48092 5.11736 8.96441 5.33322 8.48067L1.03784 6.34064C0.563231 7.35074 0.237842 8.44404 0.0898438 9.59184L4.87531 10.021Z"/>
  <path d="M16.5663 20.4837L14.0456 16.4019C13.5876 16.6604 13.0943 16.8634 12.5745 16.9997L13.4642 21.7214C14.5709 21.4671 15.6145 21.045 16.5663 20.4837Z">
  <path d="M16.8762 12.988C16.709 13.479 16.483 13.9423 16.2051 14.3699L20.0387 17.2615C20.6614 16.3663 21.1536 15.375 21.4896 14.3138L16.8762 12.988Z"/>
  <path d="M11.8946 17.1375C11.6029 17.1797 11.3041 17.2027 11 17.2027C10.7559 17.2027 10.5148 17.1874 10.2781 17.1599L9.38892 21.8818C9.91513 21.959 10.4528 22 11 22C11.6071 22 12.2029 21.9501 12.7834 21.8552L11.8946 17.1375Z"/>
  <path d="M11.3967 4.81042C11.9294 4.84457 12.444 4.94593 12.9315 5.10669L14.656 0.625011C13.6299 0.262697 12.5355 0.0482273 11.3967 0.00816488V4.81042Z"/>
  <path d="M9.59462 17.0418C9.05703 16.9164 8.54614 16.7211 8.07218 16.466L5.54663 20.5508C6.5182 21.107 7.58048 21.5187 8.70639 21.7585L9.59462 17.0418Z"/>
  <path d="M9.13616 5.08447C9.63414 4.927 10.1595 4.83111 10.703 4.80571V0.00419188C9.54868 0.034987 8.43978 0.245224 7.3999 0.605933L9.13616 5.08447Z"/>
  <path d="M5.86168 14.4697C5.55716 14.0197 5.30854 13.527 5.13005 13.003L0.515625 14.3272C0.865103 15.4279 1.38296 16.4533 2.03976 17.374L5.86168 14.4697Z"/>
  <path d="M7.15716 6.13525C7.56268 5.8141 8.00891 5.54344 8.48725 5.33043L6.75201 0.854077C5.71856 1.28798 4.76625 1.87564 3.92188 2.58735L7.15716 6.13525Z"/>
</svg>
