<svg xmlns="http://www.w3.org/2000/svg" width="36" height="36" viewBox="0 0 36 36" fill="none">
<g id="socials">
<rect id="Rectangle 1" width="36" height="36" rx="18" fill="#55ACE3"/>
<path id="Vector" d="M27.54 13.41C26.91 13.68 26.19 13.86 25.47 13.95C26.19 13.5 26.82 12.78 27.09 11.97C26.37 12.42 25.65 12.69 24.75 12.87C24.12 12.15 23.13 11.7 22.14 11.7C20.16 11.7 18.54 13.32 18.54 15.3C18.54 15.57 18.54 15.84 18.63 16.11C15.66 15.93 12.96 14.49 11.16 12.33C10.89 12.87 10.71 13.5 10.71 14.13C10.71 15.39 11.34 16.47 12.33 17.1C11.7 17.1 11.16 16.92 10.71 16.65C10.71 18.36 11.97 19.89 13.59 20.16C13.32 20.25 12.96 20.25 12.6 20.25C12.33 20.25 12.15 20.25 11.88 20.16C12.33 21.6 13.68 22.68 15.3 22.68C14.04 23.67 12.51 24.21 10.8 24.21C10.53 24.21 10.26 24.21 9.90002 24.12C11.52 25.11 13.41 25.74 15.48 25.74C22.14 25.74 25.74 20.25 25.74 15.48V15.03C26.46 14.76 27.09 14.13 27.54 13.41Z" fill="white"/>
</g>
</svg>
