<svg width="117" height="72" viewBox="0 0 117 72" fill="none" xmlns="http://www.w3.org/2000/svg">
<path d="M115.015 66.9474C115.015 66.9723 89.4598 66.9905 57.9442 66.9905C26.4286 66.9905 0.866699 66.9723 0.866699 66.9474C0.866699 66.9225 26.417 66.9043 57.9442 66.9043C89.4714 66.9043 115.015 66.9242 115.015 66.9474Z" fill="#212121"/>
<path d="M43.8647 0H78.0761V32.5833C78.0761 33.2965 77.7928 33.9805 77.2885 34.4848C76.7842 34.9891 76.1002 35.2724 75.387 35.2724H43.8647V0Z" fill="#EBEBEB"/>
<path d="M75.251 10.4985C75.251 10.5697 69.0686 10.6278 61.4421 10.6278C53.8156 10.6278 47.6299 10.5697 47.6299 10.4985C47.6299 10.4272 53.8123 10.3691 61.4421 10.3691C69.0719 10.3691 75.251 10.4272 75.251 10.4985Z" fill="#616161"/>
<path d="M61.6049 12.8901C61.6049 12.9614 58.551 13.0194 54.7825 13.0194C51.0141 13.0194 47.9585 12.9614 47.9585 12.8901C47.9585 12.8188 51.0141 12.7607 54.7825 12.7607C58.551 12.7607 61.6049 12.8155 61.6049 12.8901Z" fill="#616161"/>
<path d="M67.0596 12.6664C67.0596 12.7377 66.2505 12.7957 65.2525 12.7957C64.2544 12.7957 63.4453 12.7377 63.4453 12.6664C63.4453 12.5951 64.2544 12.5371 65.2525 12.5371C66.2505 12.5371 67.0596 12.5951 67.0596 12.6664Z" fill="#616161"/>
<path d="M75.9891 12.519C75.9891 12.5903 74.3876 12.6483 72.4113 12.6483C70.4351 12.6483 68.8335 12.5903 68.8335 12.519C68.8335 12.4477 70.4351 12.3896 72.4113 12.3896C74.3876 12.3896 75.9891 12.4477 75.9891 12.519Z" fill="#616161"/>
<path d="M60.4656 15.1733C60.4656 15.2462 57.5924 15.3042 54.0477 15.3042C50.5031 15.3042 47.6299 15.2462 47.6299 15.1733C47.6299 15.1003 50.5031 15.0439 54.0477 15.0439C57.5924 15.0439 60.4656 15.102 60.4656 15.1733Z" fill="#616161"/>
<path d="M75.9891 15.1088C75.9891 15.1801 72.8523 15.2381 68.9827 15.2381C65.1131 15.2381 61.9746 15.1801 61.9746 15.1088C61.9746 15.0375 65.1114 14.9795 68.9827 14.9795C72.8539 14.9795 75.9891 15.0359 75.9891 15.1088Z" fill="#616161"/>
<path d="M75.989 17.4103C75.989 17.4816 74.593 17.5396 72.8688 17.5396C71.1445 17.5396 69.7485 17.4816 69.7485 17.4103C69.7485 17.339 71.1462 17.2793 72.8688 17.2793C74.5913 17.2793 75.989 17.3373 75.989 17.4103Z" fill="#616161"/>
<path d="M63.0805 7.93694C63.0805 8.00823 59.695 8.06626 55.5203 8.06626C51.3456 8.06626 47.9585 8.00823 47.9585 7.93694C47.9585 7.86565 51.344 7.80762 55.5203 7.80762C59.6966 7.80762 63.0805 7.86565 63.0805 7.93694Z" fill="#B75400"/>
<path d="M84.1143 19.7578H17.8751C16.541 19.7578 15.4595 20.8393 15.4595 22.1734V64.3395C15.4595 65.6736 16.541 66.7551 17.8751 66.7551H84.1143C85.4484 66.7551 86.5299 65.6736 86.5299 64.3395V22.1734C86.5299 20.8393 85.4484 19.7578 84.1143 19.7578Z" fill="#212121"/>
<path d="M12.5864 63.2783H89.584V64.4389C89.584 65.2216 89.2731 65.9722 88.7196 66.5256C88.1662 67.0791 87.4155 67.39 86.6329 67.39H15.5375C14.7549 67.39 14.0042 67.0791 13.4508 66.5256C12.8973 65.9722 12.5864 65.2216 12.5864 64.4389V63.2783Z" fill="#212121"/>
<path d="M84.5208 21.624H17.4658V61.3132H84.5208V21.624Z" fill="#616161"/>
<path d="M44.0869 63.2777H44.387H45.2624L48.5103 63.2644L59.3747 63.2412H59.4543L59.4145 63.3108L58.9834 64.0503L58.5275 64.8312L58.5142 64.8544H58.4877L45.0419 64.8295H45.0303V64.8196L44.3257 63.6739L44.1483 63.3838L44.0919 63.2876C44.0919 63.2876 44.1168 63.3224 44.1582 63.3888L44.3472 63.6789C44.513 63.9359 44.7517 64.3106 45.0651 64.7963L45.0469 64.7864L58.4927 64.7615L58.4529 64.7847L58.9088 64.0039L59.3399 63.2644L59.3797 63.3341L48.56 63.3108L45.2906 63.2909H44.4019H44.1682L44.0869 63.2777Z" fill="#616161"/>
<path d="M86.5283 63.2785C86.5283 63.3033 70.6121 63.3216 50.9955 63.3216C31.3789 63.3216 15.4595 63.3033 15.4595 63.2785C15.4595 63.2536 31.3656 63.2354 50.9955 63.2354C70.6254 63.2354 86.5283 63.2552 86.5283 63.2785Z" fill="#616161"/>
<path d="M68.3858 13.6982C68.9135 13.6982 69.4195 13.9079 69.7926 14.281C70.1657 14.6541 70.3753 15.1601 70.3753 15.6878V19.7613H64.4399V15.9994C64.4397 15.6972 64.4991 15.3979 64.6147 15.1186C64.7302 14.8393 64.8997 14.5855 65.1135 14.3718C65.3272 14.158 65.581 13.9885 65.8603 13.873C66.1395 13.7574 66.4389 13.698 66.7411 13.6982H68.3858Z" fill="#212121"/>
<path d="M68.3858 13.6982C68.3858 13.7231 62.7853 13.7364 55.8767 13.7314C48.9682 13.7264 43.3677 13.6999 43.3677 13.6767C43.3677 13.6535 48.9665 13.6386 55.8767 13.6435C62.787 13.6485 68.3858 13.675 68.3858 13.6982Z" fill="#212121"/>
<path d="M68.3395 13.6924L65.8625 13.6758L62.2665 13.6973H35.849C34.7717 13.6973 33.7386 14.1253 32.9768 14.887C32.2151 15.6488 31.7871 16.682 31.7871 17.7593V61.4076H66.0001V15.9239C66.1013 13.6973 68.3395 13.6924 68.3395 13.6924Z" fill="#FAFAFA"/>
<path d="M68.3393 13.6924L47.7097 13.7372H37.3957H36.1058C35.8903 13.7372 35.6781 13.7372 35.4658 13.7554C35.2549 13.7778 35.046 13.8161 34.8408 13.8698C34.2215 14.0296 33.6497 14.3359 33.1736 14.7629C32.6975 15.19 32.3311 15.7252 32.1052 16.3236C32.0721 16.4247 32.0256 16.5209 32.0024 16.6237L31.9245 16.932C31.884 17.1404 31.8591 17.3516 31.8499 17.5637C31.8317 18.4175 31.8499 19.2813 31.8499 20.1401L31.8781 61.3977L31.7952 61.3148L66.0082 61.338L65.9485 61.3977L65.9651 36.8603L65.985 24.5917L65.9966 18.4573V16.9237V16.1561C65.9916 16.0283 65.9966 15.9002 66.0115 15.7731C66.0204 15.6455 66.0409 15.519 66.0729 15.3951C66.1796 14.8884 66.4762 14.4417 66.9018 14.1467C67.112 14.0002 67.3443 13.8882 67.5899 13.8151C67.8333 13.7417 68.0852 13.7005 68.3393 13.6924ZM68.3393 13.6924C68.0835 13.7037 67.8304 13.7489 67.5866 13.8267C67.3416 13.9 67.1098 14.0119 66.9002 14.1583C66.4774 14.4535 66.1842 14.8999 66.0812 15.4051C66.0496 15.5284 66.0296 15.6544 66.0215 15.7814C66.0079 15.9086 66.0035 16.0366 66.0082 16.1644V18.464L66.0215 24.5983L66.0414 36.867L66.0563 61.4043V61.4673H65.9949L31.7819 61.4889H31.7007V61.406L31.7272 20.1484C31.7272 19.2879 31.7272 18.4308 31.7388 17.567C31.7485 17.3494 31.774 17.1327 31.8151 16.9188L31.898 16.6038C31.9212 16.4976 31.9693 16.3982 32.0024 16.2954C32.2348 15.682 32.6113 15.1335 33.1001 14.696C33.5889 14.2586 34.1756 13.9451 34.811 13.782C35.0217 13.7275 35.2361 13.6887 35.4526 13.6659C35.6698 13.6543 35.887 13.6427 36.1008 13.6477H37.3907H47.7047L68.3393 13.6924Z" fill="#212121"/>
<path d="M36.9416 21.5518H42.9101L42.9201 23.5512H42.6333C42.5404 22.8361 42.2729 22.352 41.8308 22.0989C41.482 21.9381 41.1006 21.8604 40.7167 21.8717V27.0942C40.7167 27.4606 40.7797 27.7027 40.9074 27.822C41.035 27.9414 41.3003 28.0011 41.7048 28.0011V28.2531H38.1718V28.0011C38.5581 28.0011 38.8167 27.9398 38.9427 27.8187C39.0687 27.6977 39.135 27.4573 39.135 27.0942V21.8717C38.7513 21.8626 38.3704 21.9402 38.0209 22.0989C37.5467 22.3592 37.2781 22.8416 37.2168 23.5512H36.9316L36.9416 21.5518Z" fill="#B75400"/>
<path d="M61.3048 22.0092C61.3048 22.0805 58.0122 22.1385 53.9503 22.1385C49.8883 22.1385 46.5957 22.0805 46.5957 22.0092C46.5957 21.9379 49.8883 21.8799 53.9503 21.8799C58.0122 21.8799 61.3048 21.9313 61.3048 22.0092Z" fill="#B75400"/>
<path d="M52.5773 24.3536C52.5773 24.4249 51.304 24.4829 49.734 24.4829C48.1639 24.4829 46.8906 24.4249 46.8906 24.3536C46.8906 24.2823 48.1639 24.2227 49.734 24.2227C51.304 24.2227 52.5773 24.2807 52.5773 24.3536Z" fill="#616161"/>
<path d="M45.4083 31.5219C45.4083 31.5932 42.9911 31.6512 40.0085 31.6512C37.0259 31.6512 34.6069 31.5932 34.6069 31.5219C34.6069 31.4506 37.0242 31.3926 40.0085 31.3926C42.9927 31.3926 45.4083 31.4589 45.4083 31.5219Z" fill="#616161"/>
<path d="M57.6408 31.5219C57.6408 31.5932 55.2218 31.6512 52.2409 31.6512C49.2599 31.6512 46.8394 31.5932 46.8394 31.5219C46.8394 31.4506 49.2566 31.3926 52.2409 31.3926C55.2252 31.3926 57.6408 31.4589 57.6408 31.5219Z" fill="#B75400"/>
<path d="M45.4083 33.4369C45.4083 33.5082 42.9911 33.5663 40.0085 33.5663C37.0259 33.5663 34.6069 33.5082 34.6069 33.4369C34.6069 33.3656 37.0242 33.3076 40.0085 33.3076C42.9927 33.3076 45.4083 33.3656 45.4083 33.4369Z" fill="#616161"/>
<path d="M45.4083 35.3517C45.4083 35.423 42.9911 35.481 40.0085 35.481C37.0259 35.481 34.6069 35.423 34.6069 35.3517C34.6069 35.2804 37.0242 35.2207 40.0085 35.2207C42.9927 35.2207 45.4083 35.2721 45.4083 35.3517Z" fill="#B75400"/>
<path d="M52.5773 28.2524C52.5773 28.3237 51.304 28.3817 49.734 28.3817C48.1639 28.3817 46.8906 28.3237 46.8906 28.2524C46.8906 28.1811 48.1639 28.123 49.734 28.123C51.304 28.123 52.5773 28.1811 52.5773 28.2524Z" fill="#616161"/>
<path d="M62.4421 31.5219C62.4421 31.5932 61.5932 31.6512 60.5471 31.6512C59.5009 31.6512 58.6504 31.5932 58.6504 31.5219C58.6504 31.4506 59.4993 31.3926 60.5471 31.3926C61.5949 31.3926 62.4421 31.4589 62.4421 31.5219Z" fill="#616161"/>
<path d="M63.4568 24.3536C63.4568 24.4249 61.2717 24.4829 58.5775 24.4829C55.8834 24.4829 53.6982 24.4249 53.6982 24.3536C53.6982 24.2823 55.8817 24.2227 58.5775 24.2227C61.2733 24.2227 63.4568 24.2807 63.4568 24.3536Z" fill="#616161"/>
<path d="M63.0156 26.2201C63.0156 26.2914 59.4063 26.3495 54.9531 26.3495C50.4999 26.3495 46.8906 26.2914 46.8906 26.2201C46.8906 26.1488 50.4999 26.0908 54.9531 26.0908C59.4063 26.0908 63.0156 26.1538 63.0156 26.2201Z" fill="#616161"/>
<path d="M62.4421 33.4369C62.4421 33.5082 58.9489 33.5663 54.6499 33.5663C50.3509 33.5663 46.8477 33.5082 46.8477 33.4369C46.8477 33.3656 50.3393 33.3076 54.6499 33.3076C58.9605 33.3076 62.4421 33.3656 62.4421 33.4369Z" fill="#616161"/>
<path d="M62.442 38.9799C62.442 39.0512 59.1642 39.1092 55.1222 39.1092C51.0802 39.1092 47.8008 39.0512 47.8008 38.9799C47.8008 38.9086 51.0785 38.8506 55.1222 38.8506C59.1659 38.8506 62.442 38.9086 62.442 38.9799Z" fill="#B75400"/>
<path d="M62.442 40.8432C62.442 40.9145 59.1642 40.9725 55.1222 40.9725C51.0802 40.9725 47.8008 40.9145 47.8008 40.8432C47.8008 40.7719 51.0785 40.7139 55.1222 40.7139C59.1659 40.7139 62.442 40.7719 62.442 40.8432Z" fill="#616161"/>
<path d="M62.442 42.7065C62.442 42.7778 59.1642 42.8358 55.1222 42.8358C51.0802 42.8358 47.8008 42.7778 47.8008 42.7065C47.8008 42.6352 51.0785 42.5771 55.1222 42.5771C59.1659 42.5771 62.442 42.6352 62.442 42.7065Z" fill="#616161"/>
<path d="M62.442 44.5697C62.442 44.641 59.1642 44.6991 55.1222 44.6991C51.0802 44.6991 47.8008 44.641 47.8008 44.5697C47.8008 44.4985 51.0785 44.4404 55.1222 44.4404C59.1659 44.4404 62.442 44.4985 62.442 44.5697Z" fill="#616161"/>
<path d="M56.2297 46.434C56.2297 46.4688 55.7572 46.502 54.9945 46.5252C54.2319 46.5484 53.1708 46.5633 52.0103 46.5633C50.8497 46.5633 49.7919 46.5484 49.026 46.5252C48.26 46.502 47.7925 46.4688 47.7925 46.434C47.7925 46.3992 48.2633 46.366 49.026 46.3428C49.7886 46.3196 50.8497 46.3047 52.0103 46.3047C53.1708 46.3047 54.2269 46.3196 54.9945 46.3428C55.7621 46.366 56.2297 46.3975 56.2297 46.434Z" fill="#616161"/>
<path d="M59.7892 35.4516C59.7892 35.5229 56.9707 35.5809 53.4891 35.5809C50.0074 35.5809 47.189 35.5229 47.189 35.4516C47.189 35.3803 50.0074 35.3223 53.4891 35.3223C56.9707 35.3223 59.7892 35.3803 59.7892 35.4516Z" fill="#616161"/>
<path d="M45.1532 39.1901L45.9308 53.5743L31.8666 55.335L31.855 39.0674L45.1532 39.1901Z" fill="#E0E0E0"/>
<path d="M26.9433 38.1939L26.8447 53.4531L45.9304 53.5764L46.029 38.3171L26.9433 38.1939Z" fill="#F5F5F5"/>
<path d="M27.5954 39.1593L27.5093 52.4971L45.2537 52.6117L45.3399 39.2739L27.5954 39.1593Z" fill="#B75400"/>
<g opacity="0.2">
<path opacity="0.2" d="M27.5078 52.495L33.7599 44.2451L37.5648 49.456L40.1877 46.7005L45.2543 52.6094L27.5078 52.495Z" fill="black"/>
</g>
<g opacity="0.2">
<path opacity="0.2" d="M39.2342 43.2634C39.2326 43.5399 39.1489 43.8097 38.9939 44.0386C38.8389 44.2676 38.6195 44.4454 38.3634 44.5496C38.1073 44.6538 37.826 44.6797 37.5552 44.6241C37.2844 44.5684 37.0361 44.4336 36.8419 44.2369C36.6477 44.0401 36.5162 43.7901 36.464 43.5186C36.4119 43.247 36.4415 42.9661 36.549 42.7114C36.6566 42.4567 36.8373 42.2396 37.0682 42.0876C37.2992 41.9356 37.57 41.8555 37.8465 41.8575C38.03 41.8585 38.2114 41.8958 38.3805 41.967C38.5496 42.0383 38.7029 42.1422 38.8318 42.2728C38.9607 42.4033 39.0626 42.558 39.1316 42.728C39.2007 42.898 39.2355 43.0799 39.2342 43.2634Z" fill="black"/>
</g>
<path d="M47.7675 57.174C47.7675 57.2324 47.7502 57.2894 47.7177 57.338C47.6853 57.3865 47.6392 57.4243 47.5853 57.4467C47.5314 57.469 47.472 57.4748 47.4148 57.4635C47.3575 57.4521 47.305 57.424 47.2637 57.3827C47.2224 57.3414 47.1943 57.2888 47.1829 57.2316C47.1715 57.1743 47.1774 57.115 47.1997 57.0611C47.222 57.0072 47.2599 56.9611 47.3084 56.9286C47.3569 56.8962 47.414 56.8789 47.4724 56.8789C47.5112 56.8787 47.5497 56.8862 47.5856 56.9009C47.6215 56.9157 47.6541 56.9374 47.6815 56.9649C47.709 56.9923 47.7307 57.0249 47.7455 57.0608C47.7602 57.0967 47.7677 57.1352 47.7675 57.174Z" fill="#212121"/>
<path d="M49.5199 57.174C49.5199 57.2324 49.5026 57.2894 49.4702 57.338C49.4377 57.3865 49.3917 57.4243 49.3377 57.4467C49.2838 57.469 49.2245 57.4748 49.1672 57.4635C49.11 57.4521 49.0574 57.424 49.0161 57.3827C48.9749 57.3414 48.9467 57.2888 48.9354 57.2316C48.924 57.1743 48.9298 57.115 48.9522 57.0611C48.9745 57.0072 49.0123 56.9611 49.0608 56.9286C49.1094 56.8962 49.1664 56.8789 49.2248 56.8789C49.3031 56.8789 49.3781 56.91 49.4335 56.9653C49.4888 57.0207 49.5199 57.0957 49.5199 57.174Z" fill="#212121"/>
<path d="M51.2709 57.174C51.2709 57.2324 51.2536 57.2894 51.2211 57.338C51.1887 57.3865 51.1426 57.4243 51.0887 57.4467C51.0348 57.469 50.9754 57.4748 50.9182 57.4635C50.861 57.4521 50.8084 57.424 50.7671 57.3827C50.7258 57.3414 50.6977 57.2888 50.6863 57.2316C50.6749 57.1743 50.6808 57.115 50.7031 57.0611C50.7255 57.0072 50.7633 56.9611 50.8118 56.9286C50.8604 56.8962 50.9174 56.8789 50.9758 56.8789C51.054 56.8789 51.1291 56.91 51.1845 56.9653C51.2398 57.0207 51.2709 57.0957 51.2709 57.174Z" fill="#212121"/>
<path d="M57.7235 50.3168C57.7235 50.3881 55.3046 50.4461 52.3219 50.4461C49.3393 50.4461 46.9204 50.3881 46.9204 50.3168C46.9204 50.2455 49.3393 50.1875 52.3219 50.1875C55.3046 50.1875 57.7235 50.2455 57.7235 50.3168Z" fill="#B75400"/>
<path d="M62.5248 52.2319C62.5248 52.3031 59.0316 52.3612 54.7226 52.3612C50.4137 52.3612 46.9204 52.3031 46.9204 52.2319C46.9204 52.1606 50.4137 52.1025 54.7226 52.1025C59.0316 52.1025 62.5248 52.1606 62.5248 52.2319Z" fill="#616161"/>
<path d="M97.2521 55.6366L97.1602 64.8281L108.656 64.9431L108.748 55.7515L97.2521 55.6366Z" fill="#F5F5F5"/>
<path d="M97.2467 56.0049L97.1948 64.0391L107.883 64.1081L107.935 56.0739L97.2467 56.0049Z" fill="#B75400"/>
<path opacity="0.2" d="M97.1924 64.0362L100.958 59.0674L103.25 62.2058L104.83 60.5463L107.881 64.1058L97.1924 64.0362Z" fill="black"/>
<g opacity="0.2">
<path opacity="0.2" d="M104.257 58.4833C104.256 58.6499 104.206 58.8126 104.113 58.9508C104.02 59.0889 103.888 59.1964 103.733 59.2595C103.579 59.3226 103.41 59.3385 103.246 59.3052C103.083 59.2719 102.933 59.1909 102.816 59.0725C102.699 58.9541 102.619 58.8036 102.588 58.64C102.556 58.4764 102.574 58.307 102.638 58.1534C102.703 57.9998 102.811 57.8688 102.951 57.777C103.09 57.6852 103.253 57.6367 103.419 57.6377C103.643 57.639 103.856 57.7288 104.013 57.8873C104.17 58.0458 104.258 58.2602 104.257 58.4833Z" fill="black"/>
</g>
<path d="M95.1692 54.4629L95.1099 63.6543L106.606 63.7285L106.665 54.5372L95.1692 54.4629Z" fill="#F5F5F5"/>
<path d="M95.5631 55.044L95.5112 63.0781L106.2 63.1471L106.252 55.113L95.5631 55.044Z" fill="#B75400"/>
<path opacity="0.2" d="M95.5063 63.0762L99.2715 58.1074L101.564 61.2459L103.144 59.5863L106.195 63.1459L95.5063 63.0762Z" fill="black"/>
<g opacity="0.2">
<path opacity="0.2" d="M102.571 57.5172C102.57 57.6842 102.519 57.847 102.425 57.9851C102.332 58.1232 102.199 58.2304 102.044 58.293C101.889 58.3555 101.72 58.3707 101.556 58.3366C101.393 58.3024 101.243 58.2205 101.126 58.1012C101.01 57.9819 100.931 57.8306 100.9 57.6665C100.87 57.5024 100.889 57.3329 100.955 57.1795C101.021 57.0262 101.131 56.8959 101.271 56.8051C101.411 56.7144 101.575 56.6674 101.742 56.67C101.964 56.6735 102.175 56.7645 102.33 56.9231C102.486 57.0818 102.572 57.2953 102.571 57.5172Z" fill="black"/>
</g>
<path d="M93.6692 53.6719L93.6099 62.8633L105.106 62.9375L105.165 53.7462L93.6692 53.6719Z" fill="#F5F5F5"/>
<path d="M94.0616 54.251L94.0098 62.2852L104.698 62.3542L104.75 54.32L94.0616 54.251Z" fill="#B75400"/>
<path opacity="0.2" d="M94.0059 62.284L97.771 57.3135L100.064 60.4536L101.642 58.7923L104.695 62.3519L94.0059 62.284Z" fill="black"/>
<g opacity="0.2">
<path opacity="0.2" d="M101.069 56.7233C101.068 56.8902 101.017 57.0531 100.923 57.1912C100.83 57.3293 100.697 57.4364 100.542 57.499C100.387 57.5616 100.218 57.5768 100.054 57.5426C99.8908 57.5085 99.7413 57.4265 99.6245 57.3072C99.5078 57.1879 99.4291 57.0366 99.3985 56.8725C99.368 56.7084 99.3868 56.5389 99.4527 56.3856C99.5187 56.2322 99.6287 56.1019 99.7688 56.0112C99.9089 55.9205 100.073 55.8735 100.24 55.8761C100.462 55.8796 100.673 55.9705 100.828 56.1292C100.984 56.2878 101.07 56.5013 101.069 56.7233Z" fill="black"/>
</g>
<path d="M92.3605 54.8661L92.2686 64.0576L103.765 64.1726L103.857 54.981L92.3605 54.8661Z" fill="#F5F5F5"/>
<path d="M92.3761 55.2393L92.3242 63.2734L103.013 63.3425L103.065 55.3083L92.3761 55.2393Z" fill="#616161"/>
<path opacity="0.2" d="M92.3198 63.2713L96.085 58.3008L98.3779 61.4392L99.9562 59.7797L103.009 63.3392L92.3198 63.2713Z" fill="black"/>
<g opacity="0.2">
<path opacity="0.2" d="M99.3895 57.7106C99.3885 57.8775 99.3379 58.0404 99.2442 58.1785C99.1504 58.3166 99.0178 58.4237 98.863 58.4863C98.7083 58.5489 98.5384 58.5641 98.375 58.5299C98.2116 58.4958 98.0621 58.4138 97.9453 58.2945C97.8286 58.1752 97.7499 58.0239 97.7193 57.8598C97.6888 57.6957 97.7076 57.5262 97.7735 57.3729C97.8395 57.2195 97.9495 57.0892 98.0896 56.9985C98.2297 56.9078 98.3937 56.8608 98.5606 56.8634C98.7828 56.866 98.9949 56.9567 99.1503 57.1155C99.3057 57.2744 99.3917 57.4884 99.3895 57.7106Z" fill="black"/>
</g>
<path d="M110.111 58.0742H103.474V66.9491H110.111V58.0742Z" fill="#212121"/>
<path d="M90.7681 58.0742V66.9475H104.032V58.0742H90.7681ZM98.8173 60.1732H95.9988C95.837 60.1732 95.6818 60.1089 95.5674 59.9945C95.453 59.88 95.3887 59.7249 95.3887 59.563C95.3887 59.4012 95.453 59.246 95.5674 59.1316C95.6818 59.0172 95.837 58.9529 95.9988 58.9529H98.8173C98.9791 58.9529 99.1343 59.0172 99.2487 59.1316C99.3632 59.246 99.4274 59.4012 99.4274 59.563C99.4274 59.7249 99.3632 59.88 99.2487 59.9945C99.1343 60.1089 98.9791 60.1732 98.8173 60.1732Z" fill="#B75400"/>
<path d="M82.1547 66.0196L69.8115 65.2636C69.7335 65.0862 69.6821 64.9834 69.6821 64.9834L66.3364 65.0514L65.2472 64.9834L65.2041 65.0729L53.9733 65.2967C51.7334 65.2967 49.3791 66.6629 49.3791 68.4087C49.3509 70.0666 50.1567 71.8738 52.1628 71.8323L67.4638 71.7809L82.7665 71.8323C84.7726 71.8738 85.3031 70.6718 85.3065 69.2277C85.5402 66.5551 83.8657 66.0412 82.1547 66.0196Z" fill="#616161"/>
<path d="M53.5669 71.8346H53.6398H53.857L54.686 71.8263L57.7664 71.8131L68.0456 71.7998L68.0025 71.8446C67.9809 71.513 67.9594 71.1499 67.9362 70.7885C67.8897 70.049 67.845 69.3196 67.8019 68.6332L67.84 68.673L58.3732 67.6019L55.568 67.282L54.812 67.1908L54.6164 67.1659C54.5945 67.1641 54.5729 67.1602 54.5517 67.1543H54.618L54.8137 67.1725L55.5713 67.2471L58.3799 67.5423L67.8483 68.5669H67.8831V68.6017C67.9279 69.2947 67.9726 70.0225 68.0191 70.757C68.0423 71.1184 68.0638 71.4782 68.0854 71.8131V71.8595H68.0406L57.7615 71.8446L54.681 71.8313H53.8521H53.6349L53.5669 71.8346Z" fill="#212121"/>
<path d="M56.7219 67.4445C56.7119 67.4561 56.5561 67.3318 56.2891 67.1676C55.9376 66.9537 55.5598 66.7866 55.1651 66.6702C54.7696 66.5575 54.361 66.4973 53.9498 66.4912C53.6348 66.4912 53.4392 66.5111 53.4375 66.4912C53.4809 66.4738 53.5268 66.4632 53.5735 66.4597C53.698 66.4404 53.8238 66.4294 53.9498 66.4265C54.7922 66.4019 55.6213 66.6401 56.3223 67.1079C56.4278 67.1775 56.5286 67.2539 56.624 67.3367C56.6904 67.4047 56.7252 67.4362 56.7219 67.4445Z" fill="#212121"/>
<path d="M81.1965 66.7874C81.1965 66.8106 78.7676 67.3992 75.7602 68.1021C72.7527 68.8051 70.3072 69.3555 70.3023 69.3323C70.2973 69.3091 72.7311 68.7206 75.7403 68.0176C78.7494 67.3146 81.1915 66.7725 81.1965 66.7874Z" fill="#212121"/>
<path d="M79.1389 66.5488C78.8053 66.6672 78.4852 66.8206 78.1839 67.0064C77.8998 67.2166 77.6401 67.458 77.4097 67.726C77.4466 67.6258 77.5029 67.534 77.5755 67.4557C77.8976 67.0516 78.3355 66.7554 78.8305 66.6069C78.929 66.5692 79.0335 66.5496 79.1389 66.5488Z" fill="#212121"/>
<path d="M74.5433 52.5342L78.4544 59.3416C78.6921 59.7555 78.8236 60.2217 78.8372 60.6988C78.8508 61.1759 78.7461 61.6489 78.5323 62.0756C78.2857 62.568 77.9037 62.9798 77.4312 63.2626C76.9586 63.5454 76.4152 63.6875 75.8647 63.6721L69.8597 63.5064L69.7021 61.3229L74.9893 60.3066L71.4247 54.1357L74.5433 52.5342Z" fill="#FFBE9D"/>
<path d="M59.9698 64.1828L65.4907 65.6451L65.6118 63.9872L60.5236 61.0327L64.2407 54.1357L61.1221 52.5342L57.211 59.3416C56.9889 59.7541 56.8605 60.2104 56.8349 60.6782C56.8092 61.1459 56.887 61.6136 57.0628 62.0478C57.2385 62.4821 57.5078 62.8723 57.8515 63.1905C58.1952 63.5088 58.6049 63.7474 59.0513 63.8893L59.9698 64.1828Z" fill="#FFBE9D"/>
<path d="M72.8836 56.9049L76.657 54.9154C76.1927 53.9741 75.6521 53.0725 75.0406 52.2196C73.8717 50.6031 72.0563 49.474 70.0004 49.043L65.66 49.0944C65.1298 49.1412 64.6087 49.2611 64.1115 49.4508V49.4342C61.7556 49.9532 59.1377 55.0911 59.1377 55.0911L62.5829 56.8999L62.6591 57.4404C62.7601 58.1566 63.0717 58.8266 63.5544 59.3652L62.5597 65.9422L73.691 66.1727L72.2768 61.4675L72.8836 56.9049Z" fill="#B75400"/>
<path d="M63.6521 59.4018C63.5915 59.3674 63.5357 59.325 63.4863 59.2758C63.3433 59.15 63.2158 59.0075 63.1067 58.8514C62.7489 58.3258 62.5843 57.6925 62.6408 57.0592C62.697 56.7208 62.7824 56.388 62.8961 56.0644C62.9956 55.7643 63.0984 55.499 63.1862 55.2769C63.2741 55.0547 63.352 54.8773 63.4051 54.7563C63.4293 54.6912 63.4616 54.6293 63.5012 54.5723C63.486 54.6399 63.4644 54.706 63.4366 54.7696C63.3852 54.9105 63.3205 55.0879 63.2426 55.2984C63.1647 55.509 63.0669 55.7958 62.9724 56.0893C62.8632 56.4101 62.7811 56.7395 62.727 57.0741C62.6993 57.4086 62.7313 57.7455 62.8215 58.0688C62.8928 58.3347 63.0046 58.5881 63.1531 58.8199C63.3029 59.0274 63.4698 59.2221 63.6521 59.4018Z" fill="#212121"/>
<path d="M61.9811 67.5307L61.3511 60.1943H74.9279L74.0276 67.6219L61.9811 67.5307Z" fill="#212121"/>
<path d="M69.0038 64.107C69.0042 64.2783 68.9536 64.4458 68.8587 64.5884C68.7637 64.731 68.6285 64.8421 68.4703 64.9078C68.3121 64.9736 68.138 64.9908 67.97 64.9575C67.8019 64.9242 67.6476 64.8417 67.5264 64.7206C67.4053 64.5994 67.3228 64.4451 67.2895 64.277C67.2562 64.109 67.2734 63.9349 67.3391 63.7766C67.4049 63.6184 67.516 63.4833 67.6586 63.3883C67.8012 63.2934 67.9687 63.2428 68.14 63.2432C68.3691 63.2432 68.5888 63.3342 68.7508 63.4962C68.9128 63.6582 69.0038 63.8779 69.0038 64.107Z" fill="#FAFAFA"/>
<path d="M67.9014 68.9629L70.2075 69.2845V71.7913L68.0871 71.7366L67.9014 68.9629Z" fill="#FFBE9D"/>
<path d="M70.2097 69.2842H71.2459C71.4473 69.2842 71.6452 69.3374 71.8195 69.4384L72.365 69.7567C72.6736 69.9277 72.9925 70.0794 73.3199 70.211C73.95 70.4132 75.0094 70.6868 75.2332 70.8592C75.8698 71.3566 75.6759 71.9319 75.326 71.9916C75.0193 72.0463 70.208 71.7926 70.208 71.7926L70.2097 69.2842Z" fill="#B75400"/>
<path d="M71.909 71.5804C71.8286 71.3728 71.7908 71.1512 71.7979 70.9288C71.7757 70.7051 71.8006 70.4792 71.8708 70.2656C71.8875 70.4829 71.892 70.701 71.8841 70.9188C71.9054 71.1387 71.9137 71.3596 71.909 71.5804Z" fill="#212121"/>
<path d="M72.4011 71.5694C72.3469 71.1725 72.3502 70.7699 72.411 70.374C72.4511 70.5708 72.4639 70.7722 72.4491 70.9725C72.461 71.1728 72.4448 71.3736 72.4011 71.5694Z" fill="#212121"/>
<path d="M72.9815 71.6684C72.8923 71.2642 72.8599 70.8496 72.8854 70.4365C72.9438 70.6353 72.9745 70.8411 72.9766 71.0483C73.0065 71.2538 73.0082 71.4624 72.9815 71.6684Z" fill="#212121"/>
<path d="M71.4613 70.9175C71.3873 70.9077 71.3155 70.8852 71.249 70.8512C71.0605 70.7721 70.8854 70.6641 70.7301 70.5312C70.682 70.4898 70.6323 70.4433 70.5826 70.3919C70.5266 70.3393 70.4815 70.2762 70.4499 70.2062C70.4319 70.1643 70.4252 70.1183 70.4304 70.073C70.4357 70.0276 70.4527 69.9844 70.4798 69.9476C70.5117 69.9087 70.5575 69.8838 70.6074 69.878C70.6549 69.8727 70.703 69.8778 70.7484 69.8929C70.9289 69.9579 71.0878 70.0719 71.2072 70.2221C71.3266 70.3723 71.4018 70.5528 71.4244 70.7434C71.447 70.934 71.416 71.1271 71.3349 71.301C71.2539 71.475 71.126 71.6229 70.9655 71.7282C70.8939 71.7797 70.8128 71.8163 70.7268 71.836C70.6827 71.8467 70.6366 71.8467 70.5925 71.836C70.5697 71.8285 70.5486 71.8164 70.5307 71.8004C70.5127 71.7844 70.4982 71.7649 70.4881 71.7431C70.4733 71.7039 70.4683 71.6617 70.4735 71.6201C70.4787 71.5785 70.494 71.5388 70.5179 71.5044C70.554 71.4431 70.5987 71.3873 70.6505 71.3386C70.798 71.1964 70.9713 71.0839 71.1612 71.007C71.2284 70.9746 71.3008 70.9544 71.375 70.9473C71.375 70.9473 71.3021 70.9772 71.1744 71.0385C70.9952 71.1251 70.8325 71.2424 70.6936 71.385C70.6473 71.4287 70.6076 71.479 70.5759 71.5342C70.5589 71.5595 70.5479 71.5883 70.5436 71.6184C70.5393 71.6486 70.5418 71.6793 70.5511 71.7083C70.5679 71.7355 70.5936 71.756 70.6238 71.7663C70.6541 71.7766 70.687 71.776 70.7169 71.7647C70.7915 71.7456 70.8619 71.7124 70.9241 71.6669C71.0707 71.5689 71.1875 71.4323 71.2615 71.2721C71.3354 71.112 71.3638 70.9346 71.3434 70.7594C71.323 70.5842 71.2546 70.418 71.1458 70.2791C71.037 70.1403 70.892 70.0342 70.7268 69.9725C70.6968 69.9576 70.663 69.9522 70.6298 69.957C70.5967 69.9617 70.5658 69.9763 70.5411 69.999C70.5221 70.0253 70.5103 70.0561 70.5068 70.0884C70.5034 70.1206 70.5083 70.1533 70.5212 70.183C70.5844 70.3007 70.6707 70.4045 70.7749 70.4881C70.9808 70.6648 71.2122 70.8096 71.4613 70.9175Z" fill="#212121"/>
<path d="M75.3258 71.9902C75.3783 71.9438 75.4212 71.8875 75.4518 71.8244C75.4821 71.7381 75.4917 71.6459 75.4799 71.5552C75.4681 71.4645 75.4352 71.3779 75.3838 71.3022C75.2346 71.0705 75.0077 70.8995 74.7439 70.8197C74.4504 70.7136 74.1022 70.6639 73.7491 70.5528C73.1456 70.3717 72.5695 70.1096 72.0365 69.7736C71.8342 69.6443 71.6767 69.5282 71.5706 69.442C71.5127 69.402 71.4599 69.3552 71.4131 69.3027C71.4756 69.334 71.535 69.3712 71.5905 69.4138C71.7016 69.4884 71.8624 69.5962 72.0696 69.7189C72.6054 70.0365 73.1777 70.2881 73.774 70.4683C74.1205 70.576 74.467 70.6341 74.7687 70.7418C75.0466 70.8319 75.2822 71.0199 75.4319 71.2707C75.4843 71.3547 75.5156 71.4502 75.5231 71.5489C75.5306 71.6476 75.5141 71.7467 75.475 71.8377C75.4488 71.8843 75.4126 71.9246 75.3689 71.9554C75.349 71.9853 75.3275 71.9936 75.3258 71.9902Z" fill="#212121"/>
<path d="M73.7558 50.8455C73.7578 50.8575 73.7578 50.8699 73.7558 50.8819V50.9847C73.7475 51.0809 73.7342 51.2152 73.7193 51.386C73.6828 51.7424 73.6314 52.2514 73.5684 52.8914V52.9295L73.5336 52.9113L71.5209 51.8518L71.569 51.8386L70.4814 53.6756L70.4581 53.7137L70.4217 53.6872L68.5979 52.2829H68.651L67.8535 52.9079L66.7659 53.7585L66.7261 53.79L66.7029 53.7452L65.6667 51.8303L65.7181 51.8469L63.523 52.825L63.4816 52.8433V52.8002L63.15 50.8471L63.1832 50.867L61.9198 51.3545L61.5882 51.4771L61.502 51.5086L61.4722 51.5169C61.4722 51.5169 61.4805 51.5169 61.4987 51.502L61.5833 51.4655L61.9148 51.3296L63.1633 50.8322L63.1914 50.8223V50.8521C63.2893 51.3959 63.4053 52.0508 63.5396 52.8018L63.4932 52.777L65.6833 51.7822L65.7181 51.7673L65.7364 51.7988C66.0679 52.4056 66.4128 53.0455 66.7759 53.7137L66.7112 53.7004L67.7988 52.8483L68.5963 52.2232L68.6228 52.2033L68.6493 52.2232L70.4731 53.6308L70.4134 53.6424L71.5093 51.8187L71.5259 51.7905L71.5557 51.8054L73.5452 52.8764L73.5071 52.8963L73.6828 51.3942C73.7044 51.2285 73.721 51.0908 73.7326 50.9947C73.7326 50.9532 73.7442 50.9201 73.7475 50.8919C73.749 50.8762 73.7518 50.8607 73.7558 50.8455Z" fill="#F5F5F5"/>
<path d="M75.3673 52.6917C75.3664 52.708 75.3636 52.7242 75.359 52.7398C75.349 52.7763 75.3374 52.8227 75.3242 52.8808C75.2893 53.0084 75.2429 53.1908 75.1816 53.4229C75.0539 53.9004 74.8682 54.5834 74.6394 55.4406L74.6295 55.4738L74.5996 55.4588L72.2603 54.3381L72.3067 54.3248C71.7082 55.177 71.045 56.1237 70.3371 57.135L70.3073 57.1764L70.2724 57.14L68.3857 55.2201L67.9878 54.8172H68.0409L65.491 56.4171L65.4545 56.4403L65.4329 56.4038L64.0569 53.9733L64.1 53.9899L61.4771 54.8935L61.4523 54.9018L61.444 54.8769C61.1953 54.1574 60.998 53.5854 60.862 53.1891C60.7974 52.9968 60.746 52.8459 60.7112 52.7398C60.6946 52.6917 60.683 52.6536 60.673 52.6238C60.6676 52.6111 60.6643 52.5977 60.6631 52.584C60.6704 52.5958 60.676 52.6087 60.6797 52.6221L60.7244 52.7349C60.7626 52.841 60.8173 52.9885 60.8902 53.1792C61.0311 53.5738 61.2367 54.1424 61.4954 54.8603L61.4622 54.8437L64.0751 53.9269L64.1033 53.917L64.1182 53.9435L65.5026 56.3674L65.4446 56.3525L67.9945 54.7492L68.0226 54.731L68.0475 54.7559C68.179 54.8907 68.3117 55.025 68.4454 55.1587L70.3371 57.0803H70.2724L72.252 54.2767L72.2686 54.2519L72.2968 54.2651L74.6278 55.4025L74.5897 55.4207L75.1567 53.4096L75.3125 52.8708C75.3308 52.8144 75.3441 52.768 75.3557 52.7332C75.3578 52.719 75.3617 52.705 75.3673 52.6917Z" fill="#F5F5F5"/>
<path d="M73.6908 41.1263C73.3583 41.1611 73.0221 41.1271 72.7032 41.0264C72.3843 40.9257 72.0896 40.7605 71.8373 40.541C72.4408 40.8461 73.2449 40.4266 73.4587 39.785C73.6726 39.1434 73.4969 37.948 72.9696 37.5236C72.7164 37.3221 72.4201 37.1819 72.1037 37.114C71.7873 37.0462 71.4595 37.0524 71.1459 37.1323C70.5242 37.2981 69.866 38.2448 69.6621 38.8549L69.6737 38.8731C69.5792 38.835 69.4814 38.8002 69.3852 38.767C68.6973 38.5238 67.9643 38.435 67.2382 38.5067C66.5101 38.5822 65.824 38.8843 65.2769 39.3705L69.493 46.1465C70.2589 46.0802 70.937 45.5629 71.3382 44.908C71.7395 44.2531 71.8937 43.4722 71.9318 42.7046C71.9417 42.5106 71.9401 42.3167 71.9318 42.1227L73.2863 42.3399C73.0433 42.0136 72.7372 41.7396 72.3861 41.5341C72.6183 41.6173 72.8714 41.6225 73.1068 41.5489C73.3423 41.4753 73.5473 41.3269 73.6908 41.1263Z" fill="#212121"/>
<path d="M68.3657 51.6426C68.9161 51.631 69.4403 51.4059 69.8277 51.0149C70.215 50.6238 70.4351 50.0974 70.4415 49.547L70.5393 41.1164C70.5442 40.9481 70.485 40.7842 70.3735 40.658C70.2621 40.5317 70.1068 40.4526 69.9391 40.4367L66.3779 39.5364C65.2356 39.4171 64.4796 40.8197 64.4066 41.9636C64.327 43.2353 64.2789 44.7904 64.4298 45.7404C64.7332 47.647 66.1955 47.8957 66.1955 47.8957C66.1955 47.8957 66.1955 48.6335 66.1955 49.5371C66.1968 49.8185 66.254 50.0969 66.364 50.3559C66.4739 50.615 66.6343 50.8496 66.8359 51.0461C67.0374 51.2425 67.276 51.3969 67.5378 51.5001C67.7996 51.6034 68.0794 51.6535 68.3608 51.6476L68.3657 51.6426Z" fill="#FFBE9D"/>
<path d="M65.146 43.1988C65.1455 43.2627 65.1701 43.3243 65.2143 43.3705C65.2586 43.4166 65.3192 43.4437 65.3831 43.4458C65.4142 43.4483 65.4455 43.4445 65.4751 43.4347C65.5047 43.4249 65.5321 43.4093 65.5556 43.3887C65.5791 43.3682 65.5982 43.3431 65.6119 43.3151C65.6255 43.287 65.6334 43.2565 65.6351 43.2253C65.636 43.1615 65.6118 43.0999 65.5678 43.0537C65.5238 43.0075 65.4634 42.9804 65.3997 42.9783C65.3685 42.9758 65.3371 42.9796 65.3074 42.9894C65.2776 42.9991 65.2502 43.0148 65.2266 43.0353C65.2029 43.0558 65.1836 43.0809 65.1698 43.1089C65.156 43.137 65.1479 43.1675 65.146 43.1988Z" fill="#212121"/>
<path d="M64.7383 42.7726C64.7681 42.8058 64.9538 42.6682 65.2174 42.6682C65.481 42.6682 65.6734 42.8008 65.7015 42.7693C65.7297 42.7378 65.685 42.6963 65.6004 42.635C65.4861 42.557 65.3508 42.5154 65.2124 42.5156C65.0753 42.5153 64.9417 42.5588 64.8311 42.64C64.7565 42.7013 64.7383 42.7593 64.7383 42.7726Z" fill="#212121"/>
<path d="M67.6514 43.1989C67.6505 43.263 67.6749 43.3248 67.7192 43.3711C67.7636 43.4173 67.8244 43.4442 67.8885 43.4459C67.9197 43.4484 67.951 43.4447 67.9808 43.4349C68.0105 43.4251 68.038 43.4095 68.0616 43.3889C68.0852 43.3684 68.1045 43.3434 68.1183 43.3153C68.1322 43.2872 68.1403 43.2567 68.1421 43.2254C68.1426 43.1615 68.1181 43.0999 68.0738 43.0537C68.0295 43.0076 67.969 42.9806 67.9051 42.9784C67.8738 42.9757 67.8423 42.9793 67.8125 42.989C67.7827 42.9987 67.7551 43.0143 67.7315 43.0349C67.7078 43.0554 67.6885 43.0806 67.6748 43.1088C67.661 43.1369 67.6531 43.1676 67.6514 43.1989Z" fill="#212121"/>
<path d="M67.3331 42.8224C67.3629 42.8539 67.5486 42.718 67.8122 42.718C68.0758 42.718 68.2681 42.8506 68.2963 42.8175C68.3245 42.7843 68.2797 42.7462 68.1952 42.6848C68.0812 42.6061 67.9457 42.5644 67.8072 42.5655C67.6703 42.5646 67.5367 42.6076 67.4259 42.6881C67.3447 42.7511 67.3181 42.8075 67.3331 42.8224Z" fill="#212121"/>
<path d="M66.3763 44.7756C66.2374 44.7322 66.0938 44.706 65.9485 44.6977C65.8822 44.6977 65.8192 44.6778 65.8076 44.6314C65.8013 44.562 65.8169 44.4924 65.8524 44.4325L66.0513 43.9202C66.3265 43.1923 66.5271 42.5938 66.4973 42.5822C66.4675 42.5706 66.2204 43.1525 65.9436 43.882L65.7529 44.396C65.7115 44.4773 65.6992 44.5703 65.7181 44.6596C65.7275 44.6837 65.7425 44.7052 65.7618 44.7225C65.7811 44.7398 65.8042 44.7523 65.8292 44.7591C65.8665 44.7691 65.9049 44.7741 65.9436 44.774C66.0871 44.7929 66.2325 44.7934 66.3763 44.7756Z" fill="#212121"/>
<path d="M66.1958 47.8904C67.0941 47.9041 67.9785 47.6682 68.7507 47.209C68.7507 47.209 68.1306 48.5187 66.2207 48.3397L66.1958 47.8904Z" fill="#EB996E"/>
<path d="M66.4888 45.4083C66.5388 45.3454 66.6041 45.2963 66.6783 45.2656C66.7525 45.2348 66.8334 45.2235 66.9132 45.2325C66.9716 45.2385 67.0282 45.2562 67.0795 45.2847C67.1308 45.3132 67.1757 45.3519 67.2116 45.3983C67.247 45.442 67.268 45.4955 67.2719 45.5516C67.2757 45.6077 67.2622 45.6635 67.2332 45.7117C67.1909 45.7588 67.1355 45.7923 67.0741 45.808C67.0127 45.8236 66.9481 45.8207 66.8883 45.7995C66.7661 45.7543 66.6535 45.6862 66.5568 45.5989C66.527 45.5781 66.5017 45.5516 66.4822 45.521C66.4725 45.5065 66.4673 45.4895 66.4673 45.4721C66.4673 45.4547 66.4725 45.4377 66.4822 45.4232" fill="#EB996E"/>
<path d="M67.1524 44.9561C67.1093 44.9561 67.1093 45.2396 66.8639 45.4435C66.6186 45.6474 66.3152 45.6093 66.3135 45.654C66.3118 45.6988 66.3815 45.7104 66.5091 45.7137C66.6774 45.7139 66.8405 45.6553 66.97 45.5479C67.0943 45.446 67.174 45.2997 67.1922 45.1401C67.2038 45.0257 67.1707 44.9561 67.1524 44.9561Z" fill="#212121"/>
<path d="M67.2134 42.3613C67.2399 42.4326 67.5019 42.3994 67.8119 42.4359C68.1219 42.4723 68.3706 42.5569 68.4104 42.4939C68.4286 42.4624 68.3855 42.3961 68.2861 42.3281C68.1514 42.2432 67.9992 42.1899 67.8409 42.1724C67.6827 42.1549 67.5225 42.1735 67.3725 42.227C67.2598 42.2717 67.2018 42.3281 67.2134 42.3613Z" fill="#212121"/>
<path d="M64.7815 42.2871C64.8279 42.3468 65.0086 42.2871 65.2274 42.2871C65.4463 42.2871 65.6303 42.3286 65.6718 42.2656C65.6917 42.2341 65.6618 42.1744 65.5806 42.118C65.4733 42.0484 65.3469 42.0142 65.2192 42.0202C65.0906 42.0225 64.9661 42.0648 64.8627 42.1412C64.7864 42.1976 64.7616 42.2589 64.7815 42.2871Z" fill="#212121"/>
<path d="M70.3273 43.4873C70.4045 43.4456 70.4917 43.4259 70.5794 43.4303C70.6671 43.4347 70.7519 43.463 70.8246 43.5121C71.0009 43.615 71.1362 43.7756 71.2076 43.9667C71.2791 44.1578 71.2824 44.3678 71.2168 44.561C71.1513 44.7543 71.021 44.919 70.8481 45.0272C70.6751 45.1355 70.47 45.1807 70.2676 45.1551" fill="#FFBE9D"/>
<path d="M70.4615 44.5863C70.4615 44.573 70.5344 44.6012 70.6273 44.5597C70.6848 44.5273 70.7313 44.4784 70.7608 44.4193C70.7904 44.3602 70.8016 44.2936 70.7931 44.2282C70.7929 44.1629 70.7734 44.0991 70.7371 44.0448C70.7009 43.9906 70.6494 43.9482 70.5891 43.9231C70.493 43.8833 70.4233 43.9032 70.4233 43.8883C70.4233 43.8734 70.488 43.8286 70.614 43.8568C70.6869 43.8741 70.7521 43.9149 70.7997 43.9728C70.8574 44.0439 70.8905 44.1317 70.8942 44.2232C70.9043 44.3066 70.8863 44.391 70.8431 44.4631C70.7998 44.5351 70.7338 44.5907 70.6554 44.6211C70.5212 44.6592 70.4515 44.5929 70.4615 44.5863Z" fill="#EB996E"/>
<path d="M70.9821 44.9726C70.9821 44.9726 71.0153 44.9908 71.07 45.0339L71.3037 45.2196L72.1327 45.9192L72.1609 45.9424L72.1377 45.9706C71.831 46.3387 71.4894 46.7996 71.1064 47.2804C71.0186 47.3898 70.9324 47.4959 70.8478 47.5954L70.7765 47.6783V47.5689C70.7434 46.793 70.7152 46.1049 70.7003 45.6108C70.7003 45.3771 70.6903 45.1814 70.687 45.0306C70.6805 44.96 70.6805 44.8889 70.687 44.8184C70.7036 44.8874 70.7125 44.958 70.7135 45.0289C70.7235 45.1798 70.7367 45.3738 70.7533 45.6092C70.7831 46.1066 70.8196 46.788 70.8578 47.5655L70.7831 47.539L71.0385 47.2273C71.4215 46.7465 71.7663 46.2889 72.0813 45.9225V45.9739L71.2772 45.2511L71.0551 45.0538C71.0278 45.0295 71.0034 45.0022 70.9821 44.9726Z" fill="#616161"/>
<path d="M67.1243 38.7021C66.6567 38.7064 66.1907 38.7575 65.7333 38.8547C65.2734 38.9532 64.8542 39.189 64.5313 39.5311C64.3724 39.7035 64.2588 39.9127 64.201 40.1399C64.1431 40.3671 64.1426 40.6052 64.1997 40.8326C64.2648 41.0577 64.4052 41.2536 64.5975 41.3876C64.7897 41.5216 65.0221 41.5855 65.2558 41.5687C65.6073 41.5223 65.9439 41.262 66.2838 41.3648C66.6236 41.4676 66.7811 41.8539 67.1127 41.9152C67.4443 41.9766 67.7278 41.6831 68.0561 41.6533C68.4208 41.6218 68.7358 41.9202 68.8983 42.2485C69.0608 42.5767 69.1221 42.9448 69.2846 43.2714C69.3296 43.3802 69.3972 43.4781 69.4829 43.5587C69.5687 43.6394 69.6706 43.7008 69.782 43.7389C69.8872 43.7606 69.9961 43.7568 70.0996 43.728C70.2031 43.6991 70.2983 43.6461 70.3772 43.5731C70.5329 43.4245 70.6521 43.2417 70.7253 43.0393C70.8976 42.6158 70.9696 42.1581 70.9356 41.7022C70.9017 41.2462 70.7627 40.8043 70.5296 40.411C70.2965 40.0177 69.9756 39.6836 69.5919 39.4349C69.2082 39.1862 68.7723 39.0296 68.318 38.9774" fill="#212121"/>
<path d="M71.7726 40.728C71.7577 40.728 71.713 40.5738 71.5969 40.34C71.2854 39.7305 70.7591 39.258 70.1197 39.0137C69.876 38.9208 69.7152 38.8926 69.7168 38.8777C69.7185 38.8628 69.7599 38.8777 69.8329 38.8777C69.9376 38.8921 70.0408 38.916 70.1412 38.949C70.4741 39.0589 70.7802 39.2374 71.0398 39.4729C71.3009 39.7074 71.5094 39.9944 71.6516 40.3152C71.6954 40.4111 71.7298 40.511 71.7544 40.6136C71.7669 40.6504 71.773 40.6891 71.7726 40.728Z" fill="#B75400"/>
<path d="M73.2318 37.9348C73.083 37.8746 72.9293 37.8269 72.7726 37.7922C72.3914 37.7275 71.9995 37.7855 71.6535 37.958C71.3102 38.1374 71.0143 38.3953 70.7897 38.7107C70.6123 38.9511 70.5294 39.1186 70.5161 39.1119C70.524 39.0681 70.5398 39.0259 70.5625 38.9876C70.6133 38.8795 70.672 38.7753 70.7383 38.6759C70.9568 38.3396 71.259 38.0659 71.6153 37.8818C71.9737 37.7006 72.3831 37.6474 72.7759 37.7309C72.8947 37.7563 73.0091 37.7987 73.1157 37.8569C73.1937 37.9 73.2351 37.9249 73.2318 37.9348Z" fill="#616161"/>
<path d="M71.3979 40.1748C71.4192 40.3049 71.4192 40.4376 71.3979 40.5677C71.3646 40.8836 71.2841 41.1926 71.1592 41.4846C71.035 41.7762 70.8673 42.0473 70.6618 42.2887C70.5819 42.3931 70.4849 42.4833 70.375 42.5556C70.6597 42.2205 70.8989 41.8492 71.0863 41.4514C71.2446 41.0411 71.3494 40.612 71.3979 40.1748Z" fill="#616161"/>
<path d="M71.453 40.2158C71.475 40.2492 71.4907 40.2863 71.4994 40.3252C71.5339 40.4272 71.5589 40.5321 71.5741 40.6386C71.6279 40.993 71.6105 41.3546 71.5228 41.7022C71.4351 42.0498 71.2789 42.3764 71.0634 42.6629C70.9989 42.7494 70.9268 42.8298 70.8479 42.9033C70.7915 42.9564 70.76 42.9829 70.755 42.9779C70.7501 42.973 70.8628 42.8486 71.0137 42.6264C71.2088 42.3382 71.3529 42.0185 71.4398 41.6814C71.523 41.3433 71.5483 40.9935 71.5144 40.6469C71.4862 40.3816 71.4381 40.2191 71.453 40.2158Z" fill="#616161"/>
<path d="M76.4701 40.6506C76.2874 40.7081 76.1322 40.8308 76.0341 40.9953C75.936 41.1597 75.9017 41.3545 75.9378 41.5426C75.974 41.7307 76.078 41.899 76.23 42.0154C76.3821 42.1318 76.5717 42.1883 76.7627 42.1741C76.9537 42.1599 77.1328 42.076 77.2659 41.9383C77.3991 41.8007 77.4771 41.6189 77.4849 41.4275C77.4928 41.2361 77.4301 41.0485 77.3087 40.9004C77.1873 40.7523 77.0157 40.6539 76.8265 40.624" fill="#EBEBEB"/>
<path d="M78.7117 37.3922C78.5018 37.4579 78.3234 37.5986 78.2104 37.7873C78.0974 37.9761 78.0577 38.1998 78.0988 38.4159C78.14 38.632 78.2592 38.8254 78.4336 38.9594C78.6081 39.0934 78.8257 39.1586 79.0451 39.1426C79.2645 39.1266 79.4704 39.0306 79.6236 38.8727C79.7768 38.7148 79.8667 38.5061 79.8761 38.2864C79.8855 38.0666 79.8138 37.851 79.6746 37.6806C79.5354 37.5102 79.3385 37.397 79.1212 37.3623" fill="#EBEBEB"/>
<path d="M83.4979 23.0343C82.0058 22.9083 80.4821 23.2432 79.4525 24.3408C78.9411 24.896 78.5598 25.5581 78.3361 26.279C78.1124 27 78.052 27.7617 78.1594 28.5088C76.5644 29.172 75.6957 31.2013 76.3141 32.8194C76.9325 34.4376 78.9386 35.3561 80.5667 34.7808C80.9349 35.7135 81.5398 36.5341 82.3218 37.1618C83.1038 37.7894 84.0359 38.2024 85.0261 38.3601C86.0164 38.5177 87.0307 38.4146 87.9689 38.0608C88.9072 37.707 89.737 37.1148 90.3766 36.3425C91.9401 36.6957 93.6925 36.6741 95.0188 35.7523C96.3452 34.8305 96.9288 32.8111 95.9274 31.5578C97.7296 31.1184 98.6447 28.8686 98.1109 27.0913C97.577 25.314 95.9755 24.0407 94.2678 23.3195C93.1388 22.842 91.7295 22.5933 90.7663 23.351C90.3787 22.7549 89.8543 22.2601 89.2368 21.9077C88.6193 21.5554 87.9265 21.3557 87.2161 21.3254C86.5058 21.295 85.7984 21.4349 85.1531 21.7333C84.5078 22.0317 83.9431 22.4801 83.5062 23.041" fill="#F5F5F5"/>
<path d="M83.4983 23.0348C83.4983 23.0348 83.5281 22.995 83.5894 22.9187C83.6804 22.807 83.7772 22.7001 83.8796 22.5987C84.2796 22.2051 84.7497 21.8897 85.2656 21.6686C85.6394 21.5067 86.033 21.3952 86.4361 21.3371C86.9187 21.2699 87.4092 21.285 87.8868 21.3818C88.4394 21.4931 88.9666 21.7055 89.4419 22.0085C89.9786 22.3509 90.4368 22.8029 90.7865 23.3349H90.7434C91.1529 23.0263 91.6499 22.8556 92.1626 22.8474C92.7062 22.8375 93.2473 22.924 93.7608 23.1028C94.3064 23.2876 94.8314 23.5282 95.3276 23.8206C95.8545 24.1246 96.3418 24.4927 96.7783 24.9165C97.2402 25.3604 97.6202 25.8824 97.9007 26.4584C98.04 26.7589 98.1467 27.0735 98.219 27.3968C98.2849 27.7285 98.3078 28.0673 98.287 28.4048C98.2456 29.1019 98.022 29.7758 97.6387 30.3595C97.439 30.6556 97.19 30.9152 96.9026 31.1271C96.6096 31.3434 96.2783 31.502 95.9261 31.5947L95.9477 31.53C96.1651 31.8077 96.3175 32.1306 96.3936 32.475C96.4688 32.8251 96.4778 33.1861 96.4202 33.5394C96.2976 34.2653 95.9495 34.9341 95.4254 35.451C94.8746 35.9644 94.1912 36.3136 93.4525 36.459C92.7043 36.6119 91.9354 36.6349 91.1794 36.527C90.9026 36.4922 90.629 36.4375 90.3604 36.3811L90.4035 36.3662C89.9146 36.9608 89.3117 37.4517 88.6302 37.8098C87.9488 38.1679 87.2026 38.386 86.4355 38.4514C85.6685 38.5167 84.8961 38.4279 84.1639 38.1903C83.4316 37.9526 82.7544 37.5709 82.1719 37.0675C81.4462 36.4542 80.8806 35.6735 80.5239 34.7928L80.5737 34.8144C80.1152 34.9619 79.6311 35.0123 79.1521 34.9623C78.6731 34.9124 78.2098 34.7632 77.7917 34.5242C77.3941 34.3096 77.0454 34.0147 76.7677 33.6582C76.49 33.3018 76.2893 32.8915 76.1785 32.4535C75.9915 31.6293 76.1093 30.7653 76.5101 30.0213C76.8647 29.3347 77.444 28.7905 78.1514 28.4794L78.1349 28.5109C78.0401 27.854 78.075 27.1848 78.2377 26.5413C78.4453 25.7088 78.8618 24.943 79.4479 24.3164C79.618 24.1389 79.8039 23.9775 80.0033 23.8339C80.3516 23.5833 80.737 23.3892 81.1457 23.2586C81.9075 23.0243 82.709 22.947 83.5016 23.0315C83.5016 23.0315 83.4485 23.0315 83.3457 23.0315C83.2429 23.0315 83.0904 23.0199 82.8881 23.0199C82.2988 23.0201 81.7131 23.1124 81.1523 23.2934C80.7475 23.4253 80.3659 23.62 80.0216 23.8704C79.8248 24.0128 79.6416 24.1732 79.4745 24.3495C79.296 24.5426 79.133 24.7493 78.987 24.9679C78.6646 25.4544 78.4269 25.992 78.2841 26.5579C78.1262 27.1949 78.0936 27.8565 78.1879 28.5059V28.5275L78.1664 28.5374C77.4738 28.8455 76.907 29.3806 76.5598 30.0545C76.1651 30.7837 76.0474 31.631 76.2282 32.4402C76.3414 32.8694 76.5429 33.2702 76.8198 33.6171C77.0967 33.9639 77.443 34.2492 77.8364 34.4546C78.2456 34.6877 78.6988 34.8331 79.1671 34.8816C79.6355 34.9301 80.1089 34.8807 80.5571 34.7364L80.5919 34.7248L80.6068 34.7597C80.9698 35.6451 81.5442 36.4281 82.2797 37.0403C83.0153 37.6524 83.8896 38.075 84.8263 38.2711C85.8376 38.4589 86.8806 38.3763 87.8498 38.0316C88.8189 37.6869 89.6799 37.0924 90.3455 36.3082L90.3621 36.2883H90.387C90.6539 36.3446 90.9241 36.3993 91.1993 36.4325C91.9448 36.5385 92.703 36.5161 93.4409 36.3662C94.1647 36.2252 94.8344 35.884 95.374 35.3814C95.8842 34.8774 96.2224 34.2253 96.3406 33.5179C96.4036 33.18 96.3959 32.8328 96.318 32.4981C96.2401 32.1634 96.0937 31.8484 95.888 31.5731L95.8482 31.5234L95.9112 31.5068C96.2526 31.4161 96.5742 31.2626 96.8595 31.0542C97.1359 30.8438 97.3747 30.5882 97.5658 30.2982C97.9423 29.7268 98.1618 29.0664 98.2024 28.3833C98.2249 28.0503 98.2032 27.7158 98.1378 27.3885C98.0675 27.0714 97.963 26.7629 97.8261 26.4684C97.5506 25.8994 97.1768 25.3837 96.7219 24.9447C96.2903 24.5245 95.808 24.1597 95.2861 23.8588C94.7955 23.5673 94.276 23.3273 93.736 23.1425C93.23 22.9658 92.6969 22.8794 92.1609 22.8872C91.6607 22.8934 91.1754 23.0582 90.7749 23.3581L90.75 23.378L90.7318 23.3514C90.0731 22.354 89.0459 21.6583 87.8752 21.4166C87.4029 21.3188 86.9175 21.3014 86.4394 21.3652C85.4815 21.5012 84.59 21.933 83.8895 22.6004C83.7552 22.733 83.6558 22.8391 83.5944 22.9138C83.5331 22.9884 83.4983 23.0348 83.4983 23.0348Z" fill="#212121"/>
<path d="M93.7526 28.2026C93.7526 28.2739 90.8114 28.3319 87.1855 28.3319C83.5596 28.3319 80.6201 28.2739 80.6201 28.2026C80.6201 28.1313 83.5596 28.0732 87.1855 28.0732C90.8114 28.0732 93.7526 28.1313 93.7526 28.2026Z" fill="#616161"/>
<path d="M93.7526 29.6349C93.7526 29.7062 90.8114 29.7642 87.1855 29.7642C83.5596 29.7642 80.6201 29.7062 80.6201 29.6349C80.6201 29.5636 83.5596 29.5039 87.1855 29.5039C90.8114 29.5039 93.7526 29.5553 93.7526 29.6349Z" fill="#616161"/>
<path d="M93.7526 31.0522C93.7526 31.1235 90.8114 31.1815 87.1855 31.1815C83.5596 31.1815 80.6201 31.1235 80.6201 31.0522C80.6201 30.9809 83.5596 30.9229 87.1855 30.9229C90.8114 30.9229 93.7526 30.9809 93.7526 31.0522Z" fill="#616161"/>
<path d="M93.7526 32.477C93.7526 32.5483 90.8114 32.6063 87.1855 32.6063C83.5596 32.6063 80.6201 32.5483 80.6201 32.477C80.6201 32.4057 83.5596 32.3477 87.1855 32.3477C90.8114 32.3477 93.7526 32.4057 93.7526 32.477Z" fill="#616161"/>
</svg>
